<svg id="Layer_1" data-name="Layer 1" xmlns="http://www.w3.org/2000/svg" viewBox="0 0 900 286.78"><defs><style>.cls-1,.cls-3{fill:#8b5e3c;}.cls-2,.cls-4{fill:#3b3d3f;}.cls-3,.cls-4{fill-rule:evenodd;}</style></defs><path class="cls-1" d="M421.14,157.36h-1.93a16,16,0,0,0-1.92.12h-3.57a24.17,24.17,0,0,1-9-1.76,25.6,25.6,0,0,1-13.54-12.57,21.08,21.08,0,0,1-2.14-9.4V72.39A20.57,20.57,0,0,1,391,63.75a25.38,25.38,0,0,1,5.2-7.52,26.15,26.15,0,0,1,7.77-5.3,23.62,23.62,0,0,1,9.76-2h17.11a21.65,21.65,0,0,1,9.19,2,27.58,27.58,0,0,1,7.7,5.3A25.55,25.55,0,0,1,453,63.62a19.36,19.36,0,0,1,1.92,8.27V88.43H428.83v-7.7c0-1.1,0-2.17-.07-3.22a24.84,24.84,0,0,1,.07-3.22,9.24,9.24,0,0,0-.64-4.93,3.84,3.84,0,0,0-2.63-2.27A9.49,9.49,0,0,0,424,67h-3.85a8.85,8.85,0,0,0-3.42,1.2,3.76,3.76,0,0,0-1.86,2.72v62.87c.29,2.61,1,4.19,2.21,4.73a15.23,15.23,0,0,0,5.92.83h.57a6.58,6.58,0,0,0,3.78-1,3.17,3.17,0,0,0,1.49-2.77v-21H421v-17l33.93.12v36.74a19.43,19.43,0,0,1-2.14,8.9,24.71,24.71,0,0,1-5.7,7.39,27.32,27.32,0,0,1-8.27,5,26.84,26.84,0,0,1-9.83,1.83c-1,0-1.88,0-2.78-.06s-1.79-.06-2.64-.06Z"/><path class="cls-1" d="M540.45,50.3V156.1H514.08L493.26,99V156.1H467.75V50.3h27.08l20,53.4V50.3Z"/><path class="cls-1" d="M576.37,157.48a24.68,24.68,0,0,1-9-1.76,26.53,26.53,0,0,1-8-4.86,24.11,24.11,0,0,1-5.64-7.45,21.15,21.15,0,0,1-2.13-9.41V72.39a21,21,0,0,1,2.06-9.21,24.51,24.51,0,0,1,5.49-7.45,26.43,26.43,0,0,1,7.77-5,22.43,22.43,0,0,1,8.77-1.83h16.11a23.43,23.43,0,0,1,8.9,1.77,27.64,27.64,0,0,1,7.92,4.92,24.39,24.39,0,0,1,5.7,7.51,20.88,20.88,0,0,1,2.13,9.28l.15,61.61a21.16,21.16,0,0,1-2.14,9.41,23.68,23.68,0,0,1-5.7,7.45,28,28,0,0,1-8,4.86,24.11,24.11,0,0,1-9,1.76ZM582.5,67a6.08,6.08,0,0,0-4.13,1.64A4.86,4.86,0,0,0,576.8,73a15.85,15.85,0,0,1,.07,2.47c0,.8-.07,1.57-.07,2.33v49a18.31,18.31,0,0,0-.07,2.84c0,.88.07,2.08.07,3.59a5.18,5.18,0,0,0,1.35,4.49,5,5,0,0,0,3.92,1.45h.29c1.33,0,2.51,0,3.56-.13a7.89,7.89,0,0,0,2.78-.69,3.92,3.92,0,0,0,1.85-1.77,8.41,8.41,0,0,0,.79-3.35c0-1.59,0-3.15-.07-4.67s0-3,.07-4.54V77.82c0-.76,0-1.53-.07-2.33a13.73,13.73,0,0,1,.07-2.47,5.21,5.21,0,0,0-1.64-4.29A6.45,6.45,0,0,0,585.64,67Z"/><path class="cls-1" d="M651.35,157.61a27.45,27.45,0,0,1-10.19-1.83,24.13,24.13,0,0,1-8-5.05,23.09,23.09,0,0,1-5.2-7.45,22.16,22.16,0,0,1-1.85-9v-14.9h25.23V130a14.72,14.72,0,0,0,.64,4.49,6.88,6.88,0,0,0,2.28,3.34,7.15,7.15,0,0,0,4.63,1.33,9.52,9.52,0,0,0,5.42-1.71,5.76,5.76,0,0,0,2.14-5A17.87,17.87,0,0,0,663.39,122a40.61,40.61,0,0,0-7.55-8.14c-3-2.49-6.27-5-9.84-7.45a67.2,67.2,0,0,1-9.83-8.34,41.74,41.74,0,0,1-7.56-10.79,33.3,33.3,0,0,1-3.06-14.9,22.67,22.67,0,0,1,7.34-16.72,26.6,26.6,0,0,1,8.19-5.12,27.31,27.31,0,0,1,10.27-1.89,21.78,21.78,0,0,0,2.28.13h2.28c1.52,0,3,0,4.49-.07s3-.06,4.49-.06a20.9,20.9,0,0,1,8.55,1.83,24.44,24.44,0,0,1,7.34,5A25.64,25.64,0,0,1,686,62.86a20.9,20.9,0,0,1,2,9V87.54H663.89v-9c0-1.26,0-2.55-.07-3.85a11.45,11.45,0,0,0-.71-3.66,6.63,6.63,0,0,0-2-2.84,5.69,5.69,0,0,0-3.78-1.14c.1,0,0,0-.35.06s-.45.07-.36.07a5.33,5.33,0,0,0-3.85,1.45,5.58,5.58,0,0,0-1.85,4.48A18.67,18.67,0,0,0,654,83.88a42.11,42.11,0,0,0,7.55,8.4q4.49,3.85,9.84,7.63a66.63,66.63,0,0,1,9.83,8.53,44.16,44.16,0,0,1,7.56,10.92,33.6,33.6,0,0,1,3.06,15,20.21,20.21,0,0,1-2.14,9.28,24.71,24.71,0,0,1-5.7,7.39,26.4,26.4,0,0,1-8,4.86,24.91,24.91,0,0,1-9,1.7Z"/><path class="cls-1" d="M696,67V50.3h72.42V67H744.86V156.1H719.48V67Z"/><path class="cls-1" d="M780.21,50.17h25.52V156.1H780.21Z"/><path class="cls-1" d="M847.49,48.79c1.42.08,2.85.12,4.27.12h10.55a26.37,26.37,0,0,1,18.25,7.2,24,24,0,0,1,5.34,7.57,21.57,21.57,0,0,1,1.93,9V89.18H862.17V79.84a68.51,68.51,0,0,0-.07-7.13,7.15,7.15,0,0,0-1.21-3.85A4.28,4.28,0,0,0,858,67.34a44,44,0,0,0-5.21-.25,9,9,0,0,0-4.06.76q-1.5.75-1.5,3.66v63.25c0,2.1.81,3.37,2.43,3.79a20.25,20.25,0,0,0,5.13.63,6.48,6.48,0,0,0,3.92-1.39,7.84,7.84,0,0,0,2.28-3.41,18.86,18.86,0,0,0,1-4.92q.21-2.78.21-5.94v-3.91h25.66v13.76a22,22,0,0,1-1.93,9,24.54,24.54,0,0,1-5.34,7.7,26.55,26.55,0,0,1-8,5.36,24.82,24.82,0,0,1-10,2,10.56,10.56,0,0,0-1.71-.12h-8.56c-.85,0-1.71,0-2.56.12h-2.14a25.65,25.65,0,0,1-10-1.95,26.34,26.34,0,0,1-8.06-5.24,25,25,0,0,1-5.41-7.58,21,21,0,0,1-2-9V72.52a21,21,0,0,1,2-9A25.09,25.09,0,0,1,829.38,56a26.08,26.08,0,0,1,8.13-5.24A25.81,25.81,0,0,1,847.49,48.79Z"/><path class="cls-2" d="M521.71,228.88V183h9.44v39.63h11v6.23Z"/><path class="cls-2" d="M597.93,219.32a9.71,9.71,0,0,1-.86,4.1,10,10,0,0,1-2.32,3.19,10.71,10.71,0,0,1-7.25,2.82h-6.6a10.46,10.46,0,0,1-3.92-.74,10.67,10.67,0,0,1-3.34-2.05,9.66,9.66,0,0,1-3.17-7.32V192.59a9.26,9.26,0,0,1,.89-4.1,10.58,10.58,0,0,1,9.6-6h6.54a10.17,10.17,0,0,1,3.86.76,11.2,11.2,0,0,1,3.33,2.08,9.94,9.94,0,0,1,2.34,3.17,9.27,9.27,0,0,1,.9,4.1Zm-18.15-25.15a8.47,8.47,0,0,0-.06,1v21.56c0,.51,0,1,0,1.45s.08,1,.16,1.66a2.37,2.37,0,0,0,1.17,2.25,6.19,6.19,0,0,0,2.72.54c.61,0,1.19,0,1.72-.05a4.29,4.29,0,0,0,1.42-.33,2.71,2.71,0,0,0,1-.82,3.16,3.16,0,0,0,.56-1.59c0-.69.07-1.37.09-2.05s0-1.35,0-2v-21.6c0-.32,0-.66,0-1s0-.68,0-1a2.74,2.74,0,0,0-.93-2,3.5,3.5,0,0,0-2-.88s-.21-.05-.62-.05h-.68a8,8,0,0,0-2.59.33,2.71,2.71,0,0,0-1.36.95,3.25,3.25,0,0,0-.52,1.56C579.82,192.66,579.78,193.37,579.78,194.17Z"/><path class="cls-2" d="M640,222.65a8.22,8.22,0,0,0,1,.06h1.54a2,2,0,0,0,.62-.11,3.16,3.16,0,0,0,1.88-.88,2.73,2.73,0,0,0,.71-2v-9.24H641v-6.34h14.31v15.2a9.15,9.15,0,0,1-.77,3.77,10.28,10.28,0,0,1-2,3.06,10.7,10.7,0,0,1-2.94,2.16,10.32,10.32,0,0,1-3.45,1.07,6,6,0,0,1-1.11.1h-1.11l-.9,0c-.27,0-.54,0-.83,0h-4a10.46,10.46,0,0,1-3.92-.74,10.24,10.24,0,0,1-3.33-2.08,10.45,10.45,0,0,1-2.35-3.19,9.43,9.43,0,0,1-.89-4.1V192.59a9.4,9.4,0,0,1,.89-4.1,10.37,10.37,0,0,1,2.38-3.2,11.2,11.2,0,0,1,3.36-2.08,10.53,10.53,0,0,1,3.86-.73h6.54a10.58,10.58,0,0,1,4.23.84,10.46,10.46,0,0,1,3.33,2.27,10.7,10.7,0,0,1,2.19,3.25,9.33,9.33,0,0,1,.8,3.8v6.45H645.7v-1.58q0-.82-.06-1.59v-.54a1.2,1.2,0,0,0-.13-.55c0-.47-.08-.94-.12-1.39a11.37,11.37,0,0,0-.19-1.34,2.84,2.84,0,0,0-1-2.24,4.33,4.33,0,0,0-2.54-.66c-.28,0-.56,0-.83,0s-.54,0-.83,0a3.36,3.36,0,0,0-2.07,1,3,3,0,0,0-.71,2v26.23a10.43,10.43,0,0,0,.09,1.31,4.53,4.53,0,0,0,.4,1.34,2.84,2.84,0,0,0,.87,1A2.28,2.28,0,0,0,640,222.65Z"/><path class="cls-2" d="M686.43,183h9.44v45.86h-9.44Z"/><path class="cls-2" d="M738.15,229.43a10.34,10.34,0,0,1-3.86-.74,11.11,11.11,0,0,1-3.36-2.05,9.91,9.91,0,0,1-2.38-3.17,9.53,9.53,0,0,1-.89-4.15V192.59a9.4,9.4,0,0,1,.89-4.1,9.91,9.91,0,0,1,2.38-3.17,11.61,11.61,0,0,1,3.36-2.08,10.17,10.17,0,0,1,3.86-.76h6.6a10.5,10.5,0,0,1,3.86.73,10.31,10.31,0,0,1,3.33,2.11,11,11,0,0,1,2.35,3.2,9.21,9.21,0,0,1,.89,4.07v6.78h-9.44v-4.54a16.87,16.87,0,0,0-.22-3.14,3,3,0,0,0-.8-1.67,2.88,2.88,0,0,0-1.69-.66c-.74-.07-1.73-.11-3-.11a4.45,4.45,0,0,0-2.16.55c-.66.37-1,1.17-1,2.41V219.7a2.65,2.65,0,0,0,.4,1.56,2.91,2.91,0,0,0,1,.9,3.79,3.79,0,0,0,1.33.44,10.64,10.64,0,0,0,1.48.11,4.11,4.11,0,0,0,2.56-.69A4.33,4.33,0,0,0,745,220.3a7.51,7.51,0,0,0,.59-2.27c.08-.82.12-1.59.12-2.32v-2.24h9.44v5.9a9.47,9.47,0,0,1-.77,3.75,9.92,9.92,0,0,1-2.16,3.22,10.52,10.52,0,0,1-3.3,2.24,10.17,10.17,0,0,1-4.2.85Z"/><path class="cls-1" d="M111.5,100V69.69a32.88,32.88,0,0,1,32.86-32.83H158V57.94H144.36a11.78,11.78,0,0,0-11.78,11.75V100c0,19.71-12.09,34.58-21.85,43.39,9.76,8.78,21.85,23.65,21.85,43.39v30.28a11.8,11.8,0,0,0,11.78,11.78H158v21.08H144.36a32.88,32.88,0,0,1-32.86-32.86v-30.3c0-15.08-13-26.7-19.65-31.66V131.61C98.55,126.65,111.5,115,111.5,100Z"/><path class="cls-3" d="M47,139.38H83.12V147h-36A8.89,8.89,0,0,1,39,153c-4.87,0-8.82-4.29-8.82-9.58s4-9.58,8.82-9.58A8.83,8.83,0,0,1,47,139.38Z"/><path class="cls-3" d="M112.29,129.84V72.14a24.4,24.4,0,0,0-6.67-16,20.66,20.66,0,0,0-30.09-.24,24.56,24.56,0,0,0-6.86,15.76v.27a25.09,25.09,0,0,0,2,9.52,22.64,22.64,0,0,0,8.14,10A20.8,20.8,0,0,0,89.7,95.12c.43-4.86,4.21-8.65,8.8-8.65,4.87,0,8.82,4.29,8.82,9.6s-3.95,9.58-8.82,9.58a8.47,8.47,0,0,1-6.38-3c-.55,0-1.08.06-1.62.06h0A27.42,27.42,0,0,1,75,97.88a30.3,30.3,0,0,1-10.8-13.3,33.51,33.51,0,0,1-2.47-10,19.6,19.6,0,0,0-2.57-.16,20.29,20.29,0,0,0-15,6.74A24,24,0,0,0,38,97.42a21.4,21.4,0,0,0,1.44,8.45A36.07,36.07,0,0,0,43,112.09H67.19a8.9,8.9,0,0,1,8.3-6.31c4.88,0,8.84,4.29,8.84,9.58s-4,9.58-8.84,9.58a8.79,8.79,0,0,1-7.86-5.21H41.21v0a21.33,21.33,0,0,0-15.63,6.94,25.2,25.2,0,0,0-.7,32.67A21.25,21.25,0,0,0,39,167v0l.32.05h.28l.25,0H40l.22,0h22.4a8.81,8.81,0,0,1,7.87-5.22c4.87,0,8.83,4.3,8.83,9.58s-4,9.58-8.83,9.58a8.91,8.91,0,0,1-8.32-6.31H43.06a25.17,25.17,0,0,0-3.26,11.38,25.54,25.54,0,0,0,3,13.34,22.94,22.94,0,0,0,9.33,9.3,20.44,20.44,0,0,0,9.62,2.37,33.09,33.09,0,0,1,2.44-9.61A30.44,30.44,0,0,1,75,188.15a27.57,27.57,0,0,1,15.47-4.88h0c.67,0,1.36,0,2,.09a8.39,8.39,0,0,1,6-2.51c4.87,0,8.82,4.31,8.82,9.6S103.37,200,98.5,200s-8.6-4-8.83-9.12a21.07,21.07,0,0,0-10.91,3.68,22.81,22.81,0,0,0-8.14,10,25.66,25.66,0,0,0-2,10h0a24.59,24.59,0,0,0,6.67,16,20.68,20.68,0,0,0,30.31,0,23.64,23.64,0,0,0,4.71-7.19,24.91,24.91,0,0,0,2-8.85v-60a3.39,3.39,0,0,1,3.23-3.52h.58a3.39,3.39,0,0,1,3.22,3.52v60l0,.13a32.46,32.46,0,0,1-8.8,21.39,27.27,27.27,0,0,1-40,0A32.27,32.27,0,0,1,62,218.68a26.93,26.93,0,0,1-12.88-3.14A29.92,29.92,0,0,1,36.8,203.27a33.82,33.82,0,0,1-1.38-29.2,28.27,28.27,0,0,1-15.73-9.62,32.68,32.68,0,0,1-7.52-21.06,32.34,32.34,0,0,1,8.47-22.13A28.26,28.26,0,0,1,35,112.84a33.53,33.53,0,0,1-1.91-3.9A29.11,29.11,0,0,1,31,97.42a31.93,31.93,0,0,1,8.27-21.66,27.13,27.13,0,0,1,20-9,25,25,0,0,1,3,.18,31.86,31.86,0,0,1,8.56-16.64,27.23,27.23,0,0,1,39.76.29A32.46,32.46,0,0,1,119.3,72l0,.14v57.7A17.85,17.85,0,0,1,114.68,142a15.21,15.21,0,0,1-11.18,5H96.62v-7.63h6.88a8.46,8.46,0,0,0,6.21-2.8A9.94,9.94,0,0,0,112.29,129.84Z"/><path class="cls-2" d="M248,100V69.69a32.88,32.88,0,0,0-32.86-32.83H201.5V57.94h13.63a11.78,11.78,0,0,1,11.78,11.75V100c0,19.71,12.09,34.58,21.85,43.39-9.76,8.78-21.85,23.65-21.85,43.39v30.28a11.8,11.8,0,0,1-11.78,11.78H201.5v21.08h13.63A32.88,32.88,0,0,0,248,217.06v-30.3c0-15.08,13-26.7,19.65-31.66V131.61C260.94,126.65,248,115,248,100Z"/><path class="cls-4" d="M312.49,139.38H276.37V147h36a8.88,8.88,0,0,0,8.18,6c4.87,0,8.83-4.29,8.83-9.58s-4-9.58-8.83-9.58A8.82,8.82,0,0,0,312.49,139.38Z"/><path class="cls-4" d="M247.19,129.84V72.14a24.5,24.5,0,0,1,6.67-16,20.68,20.68,0,0,1,30.1-.24,24.56,24.56,0,0,1,6.86,15.76v.27a25.28,25.28,0,0,1-2,9.52,22.71,22.71,0,0,1-8.14,10,20.8,20.8,0,0,1-10.94,3.69c-.44-4.86-4.21-8.65-8.8-8.65-4.87,0-8.82,4.29-8.82,9.6s4,9.58,8.82,9.58a8.43,8.43,0,0,0,6.37-3c.55,0,1.09.06,1.62.06h0a27.43,27.43,0,0,0,15.48-4.88,30.37,30.37,0,0,0,10.8-13.3,33.21,33.21,0,0,0,2.46-10,19.82,19.82,0,0,1,2.57-.16,20.29,20.29,0,0,1,15,6.74,24,24,0,0,1,6.21,16.25,21.58,21.58,0,0,1-1.44,8.45,36.07,36.07,0,0,1-3.54,6.22H292.3a8.9,8.9,0,0,0-8.3-6.31c-4.89,0-8.84,4.29-8.84,9.58s3.95,9.58,8.84,9.58a8.79,8.79,0,0,0,7.86-5.21h26.42v0a21.34,21.34,0,0,1,15.63,6.94,25.18,25.18,0,0,1,.69,32.67A21.21,21.21,0,0,1,320.52,167v0l-.31.05h-.28l-.25,0h-.21l-.22,0h-22.4a8.81,8.81,0,0,0-7.87-5.22c-4.88,0-8.83,4.3-8.83,9.58s4,9.58,8.83,9.58a8.89,8.89,0,0,0,8.31-6.31h19.13a25.6,25.6,0,0,1,.23,24.72,22.94,22.94,0,0,1-9.33,9.3,20.48,20.48,0,0,1-9.63,2.37,32.77,32.77,0,0,0-2.43-9.61,30.51,30.51,0,0,0-10.8-13.31A27.58,27.58,0,0,0,269,183.27h0c-.66,0-1.35,0-2,.09a8.39,8.39,0,0,0-6-2.51c-4.87,0-8.82,4.31-8.82,9.6s4,9.58,8.82,9.58,8.6-4,8.83-9.12a21.07,21.07,0,0,1,10.91,3.68,22.88,22.88,0,0,1,8.14,10,25.66,25.66,0,0,1,2,10h0a24.69,24.69,0,0,1-6.67,16,20.69,20.69,0,0,1-30.32,0,23.8,23.8,0,0,1-4.7-7.19,24.92,24.92,0,0,1-2-8.85v-60a3.39,3.39,0,0,0-3.22-3.52h-.58a3.39,3.39,0,0,0-3.22,3.52v60.17A32.47,32.47,0,0,0,249,236.16a27.27,27.27,0,0,0,40.05,0,32.27,32.27,0,0,0,8.46-17.48,26.93,26.93,0,0,0,12.88-3.14,29.92,29.92,0,0,0,12.31-12.27,33.82,33.82,0,0,0,1.38-29.2,28.27,28.27,0,0,0,15.73-9.62,32.68,32.68,0,0,0,7.52-21.06,32.34,32.34,0,0,0-8.47-22.13,28.28,28.28,0,0,0-14.32-8.42,32.06,32.06,0,0,0,1.92-3.9,29.11,29.11,0,0,0,2.08-11.52,31.93,31.93,0,0,0-8.27-21.66,27.14,27.14,0,0,0-20-9,24.83,24.83,0,0,0-3,.18,31.93,31.93,0,0,0-8.56-16.64,27.23,27.23,0,0,0-39.76.29A32.47,32.47,0,0,0,240.18,72v57.84A17.89,17.89,0,0,0,244.8,142,15.25,15.25,0,0,0,256,147h6.87v-7.63H256a8.44,8.44,0,0,1-6.21-2.8A10,10,0,0,1,247.19,129.84Z"/><path class="cls-2" d="M407.15,186.9c2.14,0,3.22-.83,3.22-2.52v-2.83a2.3,2.3,0,0,0-.85-1.83,3.68,3.68,0,0,0-2.37-.69h-13a3.47,3.47,0,0,0-2.28.69,2.3,2.3,0,0,0-.85,1.83v20h0v5.28h0v23.6a2.25,2.25,0,0,0,.85,1.82,3.42,3.42,0,0,0,2.28.7h13a3.62,3.62,0,0,0,2.37-.7,2.25,2.25,0,0,0,.85-1.82v-2.83c0-1.69-1.08-2.52-3.22-2.52h-7V186.9Z"/><path class="cls-2" d="M869.74,186.9c-2.13,0-3.21-.83-3.21-2.52v-2.83a2.27,2.27,0,0,1,.85-1.83,3.63,3.63,0,0,1,2.36-.69h13a3.47,3.47,0,0,1,2.28.69,2.27,2.27,0,0,1,.85,1.83v20h0v5.28h0v23.6a2.22,2.22,0,0,1-.85,1.82,3.42,3.42,0,0,1-2.28.7h-13a3.57,3.57,0,0,1-2.36-.7,2.22,2.22,0,0,1-.85-1.82v-2.83c0-1.69,1.08-2.52,3.21-2.52h7V186.9Z"/></svg>