<svg id="Layer_1" data-name="Layer 1" xmlns="http://www.w3.org/2000/svg" viewBox="0 0 700 700"><defs><style>.cls-1,.cls-3{fill:#8b5e3c;}.cls-2,.cls-4{fill:#3b3d3f;}.cls-3,.cls-4{fill-rule:evenodd;}</style></defs><path class="cls-1" d="M88,765.21h-3.2a25.49,25.49,0,0,0-3.21.2H75.61a40,40,0,0,1-15-2.94,42.65,42.65,0,0,1-22.56-20.93,35.11,35.11,0,0,1-3.56-15.67V623.65a34.42,34.42,0,0,1,3.21-14.4,42.35,42.35,0,0,1,8.66-12.52,43.06,43.06,0,0,1,13-8.83,39.22,39.22,0,0,1,16.26-3.37h28.5a36,36,0,0,1,15.32,3.37,45.64,45.64,0,0,1,12.82,8.83A42.37,42.37,0,0,1,141,609a32.11,32.11,0,0,1,3.21,13.77v27.56H100.79V637.54q0-2.73-.12-5.37a40.23,40.23,0,0,1,.12-5.36,15.4,15.4,0,0,0-1.07-8.2,6.41,6.41,0,0,0-4.4-3.79,15,15,0,0,0-2.61-.21H86.3a14.77,14.77,0,0,0-5.7,2,6.24,6.24,0,0,0-3.09,4.52V725.87c.48,4.35,1.7,7,3.68,7.89s5.27,1.37,9.86,1.37h1a11,11,0,0,0,6.29-1.68,5.31,5.31,0,0,0,2.5-4.63V693.9H87.73V665.51l56.52.21v61.21a32.42,32.42,0,0,1-3.57,14.83,40.92,40.92,0,0,1-9.5,12.3,45.7,45.7,0,0,1-13.77,8.31,44.88,44.88,0,0,1-16.39,3c-1.58,0-3.12,0-4.63-.1s-3-.1-4.39-.1Z"/><path class="cls-1" d="M286.73,586.85V763.1H242.8L208.13,668V763.1H165.62V586.85h45.12l33.25,89v-89Z"/><path class="cls-1" d="M346.58,765.41a40.93,40.93,0,0,1-15.08-2.94,44.24,44.24,0,0,1-13.3-8.1,39.86,39.86,0,0,1-9.38-12.4,35.19,35.19,0,0,1-3.56-15.68V623.65a35,35,0,0,1,3.44-15.35,40.7,40.7,0,0,1,9.14-12.41,44.55,44.55,0,0,1,13-8.31,37.34,37.34,0,0,1,14.6-3.05h26.84a39.16,39.16,0,0,1,14.84,3,45.78,45.78,0,0,1,13.18,8.2,40.15,40.15,0,0,1,9.5,12.52,34.48,34.48,0,0,1,3.56,15.45l.24,102.64A35.19,35.19,0,0,1,410,742a39.17,39.17,0,0,1-9.5,12.4,46.44,46.44,0,0,1-13.3,8.1,40.05,40.05,0,0,1-15,2.94Zm10.21-150.8a10.12,10.12,0,0,0-6.88,2.73,8.12,8.12,0,0,0-2.62,7.37,23.62,23.62,0,0,1,.12,4.1c-.08,1.33-.12,2.63-.12,3.89v81.61a31.82,31.82,0,0,0-.12,4.73q.12,2.21.12,6c-.32,3.23.44,5.72,2.26,7.47a8.35,8.35,0,0,0,6.53,2.42h.47q3.33,0,5.94-.21a13.41,13.41,0,0,0,4.63-1.16,6.57,6.57,0,0,0,3.09-2.94,13.92,13.92,0,0,0,1.3-5.58c0-2.66,0-5.26-.11-7.78s0-5,.11-7.57v-77c0-1.26,0-2.56-.11-3.89a24.63,24.63,0,0,1,.11-4.1,8.6,8.6,0,0,0-2.72-7.15,10.63,10.63,0,0,0-6.77-2.95Z"/><path class="cls-1" d="M471.49,765.63a45.92,45.92,0,0,1-17-3,40.31,40.31,0,0,1-13.29-8.42,38.18,38.18,0,0,1-8.67-12.4,37.07,37.07,0,0,1-3.09-15V701.9h42v17.77a24.69,24.69,0,0,0,1.07,7.47,11.47,11.47,0,0,0,3.8,5.57c1.82,1.47,4.4,2.21,7.72,2.21a15.86,15.86,0,0,0,9-2.84q3.57-2.62,3.57-8.31a29.91,29.91,0,0,0-5.11-17.46A68.09,68.09,0,0,0,479,692.75q-7.49-6.21-16.39-12.41a113.17,113.17,0,0,1-16.39-13.88,70.15,70.15,0,0,1-12.58-18q-5.12-10.31-5.11-24.82a37.91,37.91,0,0,1,12.23-27.86,44.28,44.28,0,0,1,13.65-8.52,45.48,45.48,0,0,1,17.1-3.16,34.7,34.7,0,0,0,3.8.21h3.8q3.8,0,7.49-.1t7.48-.11a34.87,34.87,0,0,1,14.24,3,41.3,41.3,0,0,1,12.24,8.31,42.82,42.82,0,0,1,8.66,12.3,34.8,34.8,0,0,1,3.33,15v26.08H492.39V634q0-3.15-.12-6.42a19.21,19.21,0,0,0-1.18-6.09,11.28,11.28,0,0,0-3.33-4.74,9.52,9.52,0,0,0-6.29-1.89c.15,0,0,0-.6.11s-.75.1-.59.1a8.88,8.88,0,0,0-6.41,2.42,9.28,9.28,0,0,0-3.09,7.47,31.13,31.13,0,0,0,5.11,17.87,69.85,69.85,0,0,0,12.58,14q7.48,6.42,16.39,12.72a111.59,111.59,0,0,1,16.39,14.2,74.06,74.06,0,0,1,12.58,18.2q5.11,10.3,5.11,25a33.77,33.77,0,0,1-3.56,15.45,41.16,41.16,0,0,1-9.5,12.31,43.71,43.71,0,0,1-13.3,8.1,41.36,41.36,0,0,1-15,2.84Z"/><path class="cls-1" d="M545.82,614.61V586.85H666.47v27.76H627.28V763.1H585V614.61Z"/><path class="cls-1" d="M686.18,586.64h42.51V763.1H686.18Z"/><path class="cls-1" d="M798.26,584.32c2.38.14,4.75.21,7.13.21H823a43.87,43.87,0,0,1,30.4,12,40,40,0,0,1,8.9,12.62,36.11,36.11,0,0,1,3.21,14.94v27.55H822.72V636.06a112.71,112.71,0,0,0-.11-11.88,12,12,0,0,0-2-6.41,7.11,7.11,0,0,0-4.87-2.53,70.19,70.19,0,0,0-8.67-.42,15.16,15.16,0,0,0-6.77,1.26c-1.66.84-2.49,2.88-2.49,6.1V727.56c0,3.5,1.34,5.61,4,6.31a34,34,0,0,0,8.55,1,10.75,10.75,0,0,0,6.54-2.31,13.14,13.14,0,0,0,3.79-5.68,31,31,0,0,0,1.67-8.21c.24-3.08.35-6.37.35-9.88v-6.52h42.75v22.92a36.8,36.8,0,0,1-3.21,15,40.69,40.69,0,0,1-8.9,12.83,44.26,44.26,0,0,1-13.42,8.94,41.51,41.51,0,0,1-16.74,3.36,16.79,16.79,0,0,0-2.85-.2H806.1c-1.42,0-2.85.06-4.28.2h-3.56a42.6,42.6,0,0,1-16.74-3.25,43.76,43.76,0,0,1-13.42-8.73,41.61,41.61,0,0,1-9-12.62,35,35,0,0,1-3.33-14.94v-102a35,35,0,0,1,3.33-14.93,41.73,41.73,0,0,1,9-12.62,43.69,43.69,0,0,1,13.54-8.73A42.87,42.87,0,0,1,798.26,584.32Z"/><path class="cls-2" d="M255.51,884.37V808h15.74v66h18.3v10.38Z"/><path class="cls-2" d="M382.5,868.43a16,16,0,0,1-1.44,6.83,16.82,16.82,0,0,1-3.86,5.33,17.49,17.49,0,0,1-5.55,3.46,17.7,17.7,0,0,1-6.53,1.23h-11a17.73,17.73,0,0,1-6.53-1.23,17.93,17.93,0,0,1-5.55-3.42,16.09,16.09,0,0,1-5.3-12.2V823.9a15.57,15.57,0,0,1,1.49-6.83,17.72,17.72,0,0,1,3.91-5.33,17.49,17.49,0,0,1,5.55-3.46,17.77,17.77,0,0,1,6.53-1.23h10.9a16.91,16.91,0,0,1,6.43,1.28,18.62,18.62,0,0,1,5.55,3.46,17,17,0,0,1,3.91,5.28,15.57,15.57,0,0,1,1.49,6.83Zm-30.23-41.89a13.35,13.35,0,0,0-.1,1.69v35.92c0,.85,0,1.65.05,2.41s.12,1.69.26,2.78c.06,1.88.72,3.13,1.95,3.74A10.25,10.25,0,0,0,359,874q1.55,0,2.88-.09a7.36,7.36,0,0,0,2.37-.55,4.52,4.52,0,0,0,1.74-1.37,5.19,5.19,0,0,0,.93-2.64c.07-1.15.12-2.29.15-3.41s.06-2.26.06-3.42v-36q0-.82-.06-1.68c0-.58,0-1.14,0-1.69a4.6,4.6,0,0,0-1.54-3.37,5.86,5.86,0,0,0-3.39-1.46c0-.06-.34-.09-1-.09h-1.13a13.57,13.57,0,0,0-4.32.55,4.43,4.43,0,0,0-2.26,1.59,5.57,5.57,0,0,0-.88,2.6C352.32,824,352.27,825.2,352.27,826.54Z"/><path class="cls-2" d="M452.52,874a15,15,0,0,0,1.64.09h2.58a3,3,0,0,0,1-.18,5.4,5.4,0,0,0,3.14-1.46,4.55,4.55,0,0,0,1.18-3.37V853.68h-7.92V843.11H478v25.32a15.31,15.31,0,0,1-1.29,6.28,17.15,17.15,0,0,1-3.39,5.1,18.16,18.16,0,0,1-4.88,3.6,17.42,17.42,0,0,1-5.76,1.78,9.66,9.66,0,0,1-1.85.18H459c-.55,0-1.05,0-1.49,0s-.91,0-1.39,0h-6.58a17.7,17.7,0,0,1-6.53-1.23,17.39,17.39,0,0,1-9.46-8.79,15.44,15.44,0,0,1-1.49-6.83V823.9a15.44,15.44,0,0,1,1.49-6.83,17.06,17.06,0,0,1,4-5.33,18.06,18.06,0,0,1,5.6-3.46,17.45,17.45,0,0,1,6.43-1.23h10.9A17.47,17.47,0,0,1,473,812.24a18,18,0,0,1,3.65,5.42A15.68,15.68,0,0,1,478,824v10.75H462.08V832.1c0-.92,0-1.8-.1-2.65v-.91a2.19,2.19,0,0,0-.21-.91c-.07-.79-.14-1.56-.2-2.32s-.17-1.5-.31-2.23a4.74,4.74,0,0,0-1.75-3.73,7.15,7.15,0,0,0-4.21-1.1c-.48,0-.95,0-1.39,0s-.91,0-1.39,0a5.49,5.49,0,0,0-3.44,1.74,5,5,0,0,0-1.19,3.36v43.72a15.88,15.88,0,0,0,.16,2.18,7,7,0,0,0,.66,2.23,4.76,4.76,0,0,0,1.44,1.73A3.87,3.87,0,0,0,452.52,874Z"/><path class="cls-2" d="M529.94,808h15.74v76.41H529.94Z"/><path class="cls-2" d="M616.1,885.28a17.44,17.44,0,0,1-6.42-1.23,18.53,18.53,0,0,1-5.6-3.42,16.3,16.3,0,0,1-4-5.28,15.64,15.64,0,0,1-1.49-6.92V823.9a15.44,15.44,0,0,1,1.49-6.83,16.52,16.52,0,0,1,4-5.28,19.26,19.26,0,0,1,5.6-3.46,16.9,16.9,0,0,1,6.42-1.28h11a17.44,17.44,0,0,1,6.42,1.23,17.26,17.26,0,0,1,5.56,3.51,18.24,18.24,0,0,1,3.9,5.32,15.21,15.21,0,0,1,1.5,6.79v11.29H628.75v-7.56a29.21,29.21,0,0,0-.36-5.23,5,5,0,0,0-1.33-2.78,4.72,4.72,0,0,0-2.83-1.09c-1.23-.12-2.88-.19-4.94-.19a7.3,7.3,0,0,0-3.6.92c-1.09.6-1.64,1.94-1.64,4v45.81a4.4,4.4,0,0,0,.67,2.59,4.92,4.92,0,0,0,1.64,1.51,6.69,6.69,0,0,0,2.21.73,17.21,17.21,0,0,0,2.47.18,6.93,6.93,0,0,0,4.27-1.14,7.31,7.31,0,0,0,2.26-2.87,12.37,12.37,0,0,0,1-3.78c.13-1.37.2-2.65.2-3.87v-3.73h15.74v9.83a15.85,15.85,0,0,1-1.29,6.24,16.79,16.79,0,0,1-3.6,5.37,17.91,17.91,0,0,1-5.5,3.74,17.12,17.12,0,0,1-7,1.41Z"/><path class="cls-1" d="M283.26,163.08v-74A80.33,80.33,0,0,1,363.53,8.88h33.3v51.5h-33.3A28.79,28.79,0,0,0,334.75,89.1v74c0,48.18-29.52,84.51-53.38,106,23.86,21.45,53.38,57.78,53.38,106v74A28.84,28.84,0,0,0,363.53,478h33.3v51.5h-33.3a80.34,80.34,0,0,1-80.27-80.28v-74c0-36.85-31.76-65.23-48-77.36V240.38C251.62,228.25,283.26,199.88,283.26,163.08Z"/><path class="cls-3" d="M125.66,259.36h88.26V278H126c-3.23,8.52-11,14.55-20,14.55-11.9,0-21.55-10.49-21.55-23.41s9.65-23.41,21.55-23.41C114.74,245.75,122.25,251.34,125.66,259.36Z"/><path class="cls-3" d="M285.2,236.06v-141a59.71,59.71,0,0,0-16.3-39.16,50.45,50.45,0,0,0-73.52-.58,60,60,0,0,0-16.77,38.5l0,.66a61.6,61.6,0,0,0,4.79,23.26,55.63,55.63,0,0,0,19.88,24.46,50.86,50.86,0,0,0,26.75,9c1.05-11.87,10.27-21.12,21.48-21.12,11.91,0,21.56,10.49,21.56,23.44S263.39,177,251.48,177a20.66,20.66,0,0,1-15.57-7.22c-1.34.11-2.64.14-3.95.14v0A67.12,67.12,0,0,1,194.14,158a74,74,0,0,1-26.38-32.48,81.76,81.76,0,0,1-6-24.43,51.52,51.52,0,0,0-6.28-.39,49.58,49.58,0,0,0-36.62,16.47,58.51,58.51,0,0,0-15.17,39.7c0,8.79,1.24,15.06,3.52,20.65,2,4.83,4.94,9.62,8.64,15.21H175c3-9,11-15.43,20.29-15.43,11.94,0,21.59,10.49,21.59,23.41s-9.65,23.41-21.59,23.41c-8.35,0-15.64-5.19-19.2-12.74H111.51v0a52,52,0,0,0-38.18,16.95,59.86,59.86,0,0,0-15.56,40.9A60.49,60.49,0,0,0,71.63,308.1,51.78,51.78,0,0,0,106,326.75v0l.76.11.69,0,.62,0v0h.51l.54,0,.55,0h1.81v0h52.37c3.59-7.55,10.85-12.74,19.23-12.74,11.91,0,21.56,10.49,21.56,23.41s-9.65,23.41-21.56,23.41c-9.36,0-17.31-6.43-20.32-15.42H116.05A62.47,62.47,0,0,0,115.5,406a55.87,55.87,0,0,0,22.79,22.72,50,50,0,0,0,23.52,5.81,80,80,0,0,1,5.95-23.48,74.32,74.32,0,0,1,26.38-32.52A67.35,67.35,0,0,1,232,366.6v0c1.63,0,3.3.07,5,.21a20.51,20.51,0,0,1,14.55-6.13c11.91,0,21.56,10.53,21.56,23.45s-9.65,23.4-21.56,23.4c-11.57,0-21-9.87-21.55-22.28a51.72,51.72,0,0,0-26.68,9,55.79,55.79,0,0,0-19.88,24.46,62.7,62.7,0,0,0-4.79,24.5h0a60.13,60.13,0,0,0,16.29,39.19,50.54,50.54,0,0,0,74.07,0,57.92,57.92,0,0,0,11.51-17.57,60.88,60.88,0,0,0,4.79-21.62V296.56c0-4.72,3.52-8.6,7.87-8.6h1.42c4.35,0,7.87,3.88,7.87,8.6V443.25l0,.32a79.23,79.23,0,0,1-21.52,52.26c-12.71,13.28-30,21.41-48.92,21.41s-36.22-8.13-48.92-21.41a78.75,78.75,0,0,1-20.69-42.71,65.86,65.86,0,0,1-31.46-7.66,73.11,73.11,0,0,1-30.09-30,82.69,82.69,0,0,1-3.37-71.34,69.13,69.13,0,0,1-38.43-23.52,79.87,79.87,0,0,1-18.37-51.46c0-21.3,7.92-40.32,20.69-54.07a69.2,69.2,0,0,1,35-20.58A79.14,79.14,0,0,1,91.55,185c-3.3-8.05-5.08-16.69-5.08-28.16a78,78,0,0,1,20.22-52.91C119.21,90.4,136.41,82,155.46,82a61.47,61.47,0,0,1,7.29.44A77.94,77.94,0,0,1,183.66,41.8c12.63-12.88,29.61-20.72,48.23-20.72,18.94,0,36.21,8.13,48.92,21.41a79.31,79.31,0,0,1,21.52,52.26l0,.33v141A43.61,43.61,0,0,1,291,265.71,37.17,37.17,0,0,1,263.71,278h-16.8V259.36h16.8a20.66,20.66,0,0,0,15.17-6.82A24.34,24.34,0,0,0,285.2,236.06Z"/><path class="cls-2" d="M616.74,163.08v-74A80.33,80.33,0,0,0,536.47,8.88h-33.3v51.5h33.3A28.79,28.79,0,0,1,565.25,89.1v74c0,48.18,29.52,84.51,53.38,106-23.86,21.45-53.38,57.78-53.38,106v74A28.84,28.84,0,0,1,536.47,478h-33.3v51.5h33.3a80.34,80.34,0,0,0,80.27-80.28v-74c0-36.85,31.76-65.23,48-77.36V240.38C648.38,228.25,616.74,199.88,616.74,163.08Z"/><path class="cls-4" d="M774.34,259.36H686.08V278H774c3.23,8.52,11,14.55,20,14.55,11.9,0,21.55-10.49,21.55-23.41s-9.65-23.41-21.55-23.41C785.26,245.75,777.75,251.34,774.34,259.36Z"/><path class="cls-4" d="M614.8,236.06v-141a59.71,59.71,0,0,1,16.3-39.16,50.45,50.45,0,0,1,73.52-.58,60,60,0,0,1,16.77,38.5l0,.66a61.6,61.6,0,0,1-4.79,23.26,55.63,55.63,0,0,1-19.88,24.46,50.86,50.86,0,0,1-26.75,9c-1-11.87-10.27-21.12-21.48-21.12-11.91,0-21.56,10.49-21.56,23.44S636.61,177,648.52,177a20.66,20.66,0,0,0,15.57-7.22c1.34.11,2.64.14,3.95.14v0A67.12,67.12,0,0,0,705.86,158a74,74,0,0,0,26.38-32.48,81.76,81.76,0,0,0,6-24.43,51.52,51.52,0,0,1,6.28-.39,49.58,49.58,0,0,1,36.62,16.47,58.51,58.51,0,0,1,15.17,39.7c0,8.79-1.24,15.06-3.52,20.65-2,4.83-4.94,9.62-8.64,15.21H725c-3-9-11-15.43-20.29-15.43-11.94,0-21.59,10.49-21.59,23.41s9.65,23.41,21.59,23.41c8.35,0,15.64-5.19,19.2-12.74h64.56v0a52,52,0,0,1,38.18,16.95,59.86,59.86,0,0,1,15.56,40.9,60.49,60.49,0,0,1-13.86,38.94A51.78,51.78,0,0,1,794,326.75v0l-.76.11-.69,0-.62,0v0h-.51l-.54,0-.55,0h-1.81v0H736.12c-3.59-7.55-10.85-12.74-19.23-12.74-11.91,0-21.56,10.49-21.56,23.41s9.65,23.41,21.56,23.41c9.36,0,17.31-6.43,20.32-15.42H784A62.47,62.47,0,0,1,784.5,406a55.87,55.87,0,0,1-22.79,22.72,50,50,0,0,1-23.52,5.81,80,80,0,0,0-6-23.48,74.32,74.32,0,0,0-26.38-32.52A67.35,67.35,0,0,0,668,366.6v0c-1.63,0-3.3.07-5,.21a20.51,20.51,0,0,0-14.55-6.13c-11.91,0-21.56,10.53-21.56,23.45s9.65,23.4,21.56,23.4c11.57,0,21-9.87,21.55-22.28a51.72,51.72,0,0,1,26.68,9,55.79,55.79,0,0,1,19.88,24.46,62.7,62.7,0,0,1,4.79,24.5h0a60.13,60.13,0,0,1-16.29,39.19,50.54,50.54,0,0,1-74.07,0,57.92,57.92,0,0,1-11.51-17.57,60.88,60.88,0,0,1-4.79-21.62V296.56c0-4.72-3.52-8.6-7.87-8.6h-1.42c-4.35,0-7.87,3.88-7.87,8.6V443.25l0,.32a79.23,79.23,0,0,0,21.52,52.26c12.71,13.28,30,21.41,48.92,21.41s36.22-8.13,48.92-21.41a78.75,78.75,0,0,0,20.69-42.71,65.86,65.86,0,0,0,31.46-7.66,73.11,73.11,0,0,0,30.09-30,82.69,82.69,0,0,0,3.37-71.34,69.13,69.13,0,0,0,38.43-23.52,79.87,79.87,0,0,0,18.37-51.46c0-21.3-7.92-40.32-20.69-54.07a69.2,69.2,0,0,0-35-20.58,79.14,79.14,0,0,0,4.68-9.51c3.3-8.05,5.08-16.69,5.08-28.16a78,78,0,0,0-20.22-52.91C780.79,90.4,763.59,82,744.54,82a61.47,61.47,0,0,0-7.29.44A77.94,77.94,0,0,0,716.34,41.8c-12.63-12.88-29.61-20.72-48.23-20.72-18.94,0-36.21,8.13-48.92,21.41a79.31,79.31,0,0,0-21.52,52.26l0,.33v141A43.61,43.61,0,0,0,609,265.71,37.17,37.17,0,0,0,636.29,278h16.8V259.36h-16.8a20.66,20.66,0,0,1-15.17-6.82A24.34,24.34,0,0,1,614.8,236.06Z"/><path class="cls-2" d="M64.66,814.43c3.56,0,5.36-1.4,5.36-4.21v-4.71a3.8,3.8,0,0,0-1.42-3,6,6,0,0,0-3.94-1.15H43a5.74,5.74,0,0,0-3.79,1.15,3.8,3.8,0,0,0-1.42,3V838.8h0v8.79h0v39.32a3.74,3.74,0,0,0,1.42,3A5.64,5.64,0,0,0,43,891.12H64.66a5.94,5.94,0,0,0,3.94-1.18,3.74,3.74,0,0,0,1.42-3V882.2c0-2.81-1.8-4.21-5.36-4.21H53.05V814.43Z"/><path class="cls-2" d="M835.34,814.43c-3.56,0-5.36-1.4-5.36-4.21v-4.71a3.8,3.8,0,0,1,1.42-3,6,6,0,0,1,3.94-1.15H857a5.74,5.74,0,0,1,3.79,1.15,3.8,3.8,0,0,1,1.42,3V838.8h0v8.79h0v39.32a3.74,3.74,0,0,1-1.42,3,5.64,5.64,0,0,1-3.79,1.18H835.34a5.94,5.94,0,0,1-3.94-1.18,3.74,3.74,0,0,1-1.42-3V882.2c0-2.81,1.8-4.21,5.36-4.21H847V814.43Z"/></svg>