<?xml version="1.0" encoding="UTF-8" standalone="no"?>
<!-- Created with Inkscape (http://www.inkscape.org/) -->

<svg
   sodipodi:docname="logoaltreversed.svg"
   inkscape:version="1.1 (c68e22c387, 2021-05-23)"
   id="svg5"
   version="1.1"
   viewBox="0 0 82.029762 11.316752"
   height="11.316752mm"
   width="82.029762mm"
   xmlns:inkscape="http://www.inkscape.org/namespaces/inkscape"
   xmlns:sodipodi="http://sodipodi.sourceforge.net/DTD/sodipodi-0.dtd"
   xmlns="http://www.w3.org/2000/svg"
   xmlns:svg="http://www.w3.org/2000/svg">
  <sodipodi:namedview
     id="namedview7"
     pagecolor="#ffffff"
     bordercolor="#666666"
     borderopacity="1.0"
     inkscape:pageshadow="2"
     inkscape:pageopacity="0.0"
     inkscape:pagecheckerboard="0"
     inkscape:document-units="mm"
     showgrid="false"
     inkscape:zoom="2.6832492"
     inkscape:cx="155.96762"
     inkscape:cy="-67.26919"
     inkscape:window-width="1878"
     inkscape:window-height="1053"
     inkscape:window-x="258"
     inkscape:window-y="383"
     inkscape:window-maximized="1"
     inkscape:current-layer="layer1" />
  <defs
     id="defs2" />
  <g
     inkscape:label="Layer 1"
     inkscape:groupmode="layer"
     id="layer1"
     transform="translate(-30.274927,-96.857278)">
    <text
       xml:space="preserve"
       style="font-size:10.5833px;line-height:1.25;font-family:Aleo;-inkscape-font-specification:Aleo;fill:#2c7169;fill-opacity:1;stroke-width:0.264583"
       x="42.203186"
       y="107.28287"
       id="text2960"><tspan
         sodipodi:role="line"
         id="tspan2958"
         style="fill:#2c7169;fill-opacity:1;stroke-width:0.264583"
         x="42.203186"
         y="107.28287" /></text>
    <g
       aria-label="gnostic"
       id="text30540"
       style="font-size:10.5833px;line-height:1.25;font-family:Aleo;-inkscape-font-specification:Aleo;fill:#c5e8e4;stroke-width:0.264583">
      <path
         d="m 52.5449,100.17049 c -0.306916,0 -0.603248,0.0423 -0.86783,0.127 -0.264583,0.0847 -0.486832,0.20109 -0.677332,0.34925 -0.190499,0.14817 -0.349249,0.33867 -0.455082,0.55033 -0.105833,0.21167 -0.158749,0.46567 -0.158749,0.73025 0,0.32808 0.07408,0.62442 0.232833,0.86783 0.158749,0.24342 0.380998,0.4445 0.656164,0.59267 -0.116416,0.0635 -0.232832,0.127 -0.317499,0.20108 -0.08467,0.0741 -0.158749,0.15875 -0.222249,0.24342 -0.0635,0.0847 -0.09525,0.16933 -0.127,0.254 -0.03175,0.0847 -0.04233,0.16933 -0.04233,0.25399 0,0.20109 0.04233,0.35984 0.127,0.48684 0.08467,0.127 0.179916,0.22225 0.317499,0.29633 -0.275166,0.10583 -0.486832,0.23283 -0.645582,0.40216 -0.158749,0.16934 -0.232832,0.39159 -0.232832,0.64559 0,0.19049 0.05292,0.37041 0.148166,0.53974 0.09525,0.16934 0.243416,0.32809 0.444499,0.45509 0.201082,0.127 0.444498,0.23283 0.751414,0.31749 0.306916,0.0847 0.666748,0.11642 1.079496,0.11642 0.412749,0 0.783165,-0.0529 1.111247,-0.15875 0.328082,-0.10583 0.603248,-0.24341 0.825497,-0.42333 0.22225,-0.17992 0.391582,-0.381 0.507999,-0.60325 0.116416,-0.22225 0.179916,-0.45508 0.179916,-0.6985 0,-0.254 -0.04233,-0.46566 -0.148166,-0.63499 -0.105833,-0.16934 -0.232833,-0.28575 -0.402166,-0.381 -0.169333,-0.0952 -0.338665,-0.16934 -0.550331,-0.21167 -0.211666,-0.0423 -0.423332,-0.0741 -0.645582,-0.0952 -0.222249,-0.0212 -0.423332,-0.0212 -0.634998,-0.0318 -0.211666,0 -0.391582,-0.0212 -0.560915,-0.0423 -0.169332,-0.0212 -0.296332,-0.0529 -0.402165,-0.10584 -0.105833,-0.0529 -0.148166,-0.13758 -0.148166,-0.24341 0,-0.127 0.08467,-0.23283 0.253999,-0.33867 0.190499,0.0423 0.402165,0.0529 0.603248,0.0529 0.306916,0 0.582082,-0.0423 0.836081,-0.127 0.253999,-0.0847 0.486832,-0.20108 0.677331,-0.34925 0.190499,-0.14816 0.338666,-0.33866 0.444499,-0.55033 0.105833,-0.21167 0.158749,-0.46567 0.158749,-0.73025 0,-0.11641 -0.01058,-0.21166 -0.03175,-0.3175 -0.02117,-0.10583 -0.04233,-0.20108 -0.07408,-0.29633 l 0.486832,-0.0847 c 0.105833,-0.0212 0.169333,-0.0529 0.211666,-0.0952 0.04233,-0.0423 0.0635,-0.10583 0.0635,-0.19049 v -0.48684 H 53.76198 c -0.169333,-0.0952 -0.359833,-0.16933 -0.560915,-0.21166 -0.201083,-0.0423 -0.423332,-0.0741 -0.656165,-0.0741 z m 1.428746,5.7679 c 0,0.10584 -0.02117,0.21167 -0.07408,0.29634 -0.05292,0.0847 -0.137582,0.16933 -0.253999,0.23283 -0.116416,0.0635 -0.253999,0.10583 -0.433915,0.14816 -0.179916,0.0423 -0.391582,0.0635 -0.634998,0.0635 -0.243416,0 -0.433915,-0.0212 -0.603248,-0.0529 -0.169333,-0.0318 -0.306916,-0.0741 -0.412749,-0.13759 -0.105833,-0.0635 -0.179916,-0.13758 -0.222249,-0.22225 -0.04233,-0.0847 -0.07408,-0.16933 -0.07408,-0.26458 0,-0.14816 0.05292,-0.27516 0.137583,-0.381 0.08467,-0.10583 0.211666,-0.20108 0.359832,-0.28575 0.158749,0.0212 0.328082,0.0318 0.497415,0.0423 0.169333,0.0106 0.338666,0.0106 0.507998,0.0212 0.169333,0.0106 0.317499,0.0212 0.465666,0.0423 0.148166,0.0212 0.285749,0.0423 0.391582,0.0847 0.105833,0.0423 0.190499,0.0953 0.253999,0.15875 0.0635,0.0635 0.09525,0.14817 0.09525,0.254 z M 52.5449,102.84807 c -0.158749,0 -0.296332,-0.0212 -0.423332,-0.0635 -0.126999,-0.0423 -0.222249,-0.10583 -0.306916,-0.1905 -0.08467,-0.0847 -0.137582,-0.16933 -0.179916,-0.27517 -0.04233,-0.10583 -0.05292,-0.23283 -0.05292,-0.35983 0,-0.26458 0.07408,-0.47625 0.232832,-0.635 0.15875,-0.15875 0.412749,-0.23283 0.730248,-0.23283 0.317499,0 0.560915,0.0741 0.719664,0.23283 0.15875,0.15875 0.243416,0.37042 0.243416,0.635 0,0.127 -0.02117,0.254 -0.0635,0.35983 -0.04233,0.10584 -0.09525,0.21167 -0.179917,0.28575 -0.07408,0.0741 -0.179916,0.13759 -0.296332,0.17992 -0.116416,0.0423 -0.264582,0.0635 -0.423332,0.0635 z"
         id="path1006" />
      <path
         d="m 61.752359,104.74248 c -0.01058,0 -0.03175,-0.0106 -0.0635,-0.0106 -0.03175,0 -0.08467,-0.0212 -0.15875,-0.0318 -0.07408,-0.0106 -0.190499,-0.0317 -0.317499,-0.0529 v -2.40241 c 0,-0.30691 -0.03175,-0.58208 -0.116416,-0.83608 -0.08467,-0.254 -0.201083,-0.47625 -0.349249,-0.65616 -0.158749,-0.17992 -0.338665,-0.32809 -0.571498,-0.42334 -0.232833,-0.10583 -0.497415,-0.14816 -0.793748,-0.14816 -0.179916,0 -0.349248,0.0212 -0.507998,0.0529 -0.158749,0.0317 -0.296332,0.0952 -0.433915,0.15875 -0.137583,0.0635 -0.275166,0.13759 -0.391582,0.23284 -0.127,0.0953 -0.232833,0.1905 -0.338666,0.30691 l -0.09525,-0.42333 c -0.05292,-0.15875 -0.158749,-0.24342 -0.328082,-0.24342 h -0.804331 -0.793747 v 0.62442 c 0,0.17991 0.08467,0.28575 0.264582,0.32808 0.01058,0 0.03175,0 0.0635,0.0106 0.03175,0 0.08467,0.0212 0.15875,0.0318 0.07408,0.0106 0.179916,0.0318 0.306915,0.0529 v 3.33374 c -0.126999,0.0212 -0.232832,0.0423 -0.306915,0.0529 -0.07408,0.0106 -0.127,0.0212 -0.15875,0.0318 -0.03175,0 -0.05292,0.0106 -0.0635,0.0106 -0.179916,0.0423 -0.264582,0.14817 -0.264582,0.32808 v 0.62442 h 0.793747 1.31233 0.793747 v -0.62442 c 0,-0.17991 -0.08467,-0.28575 -0.264583,-0.32808 -0.01058,0 -0.03175,0 -0.0635,-0.0106 -0.03175,-0.0106 -0.08467,-0.0212 -0.15875,-0.0318 -0.07408,-0.0106 -0.179916,-0.0317 -0.306915,-0.0529 v -2.87866 c 0.179916,-0.17991 0.359832,-0.30691 0.560914,-0.41275 0.201083,-0.10583 0.412749,-0.15875 0.634998,-0.15875 0.306916,0 0.539749,0.0953 0.687915,0.27517 0.148166,0.17992 0.232832,0.4445 0.232832,0.77258 v 3.45016 h 1.301746 0.804331 v -0.62442 c 0,-0.17991 -0.08467,-0.28575 -0.264582,-0.32808 z"
         id="path1008" />
      <path
         d="m 65.064928,100.18108 c -0.402165,0 -0.783164,0.0741 -1.111246,0.20108 -0.328082,0.127 -0.613831,0.30692 -0.846664,0.55033 -0.232833,0.24342 -0.423332,0.52917 -0.550332,0.87842 -0.126999,0.34924 -0.190499,0.73024 -0.190499,1.15358 0,0.43391 0.0635,0.81491 0.190499,1.16416 0.127,0.34925 0.317499,0.64558 0.550332,0.889 0.232833,0.24341 0.518582,0.43391 0.846664,0.56091 0.328082,0.127 0.709081,0.1905 1.111246,0.1905 0.402166,0 0.772581,-0.0635 1.100664,-0.1905 0.328082,-0.127 0.613831,-0.3175 0.846664,-0.56091 0.232832,-0.24342 0.402165,-0.53975 0.529165,-0.889 0.126999,-0.34925 0.190499,-0.73025 0.190499,-1.16416 0,-0.42334 -0.0635,-0.80434 -0.190499,-1.15358 -0.127,-0.34925 -0.296333,-0.635 -0.529165,-0.87842 -0.232833,-0.24341 -0.518582,-0.42333 -0.846664,-0.55033 -0.328083,-0.127 -0.698498,-0.20108 -1.100664,-0.20108 z m 0,4.58257 c -0.455081,0 -0.793747,-0.14817 -1.015996,-0.45509 -0.22225,-0.30691 -0.338666,-0.74083 -0.338666,-1.32291 0,-0.58208 0.116416,-1.03716 0.338666,-1.34408 0.222249,-0.30691 0.560915,-0.46566 1.015996,-0.46566 0.455082,0 0.783165,0.15875 0.994831,0.46566 0.211666,0.30692 0.328082,0.75142 0.328082,1.3335 0,0.58208 -0.116416,1.02658 -0.328082,1.33349 -0.211666,0.30692 -0.539749,0.45509 -0.994831,0.45509 z"
         id="path1010" />
      <path
         d="m 71.901721,103.40898 c -0.07408,-0.15875 -0.169333,-0.28575 -0.296332,-0.39158 -0.127,-0.11641 -0.264583,-0.20108 -0.423332,-0.27516 -0.15875,-0.0741 -0.328083,-0.14817 -0.497416,-0.20109 -0.169332,-0.0529 -0.328082,-0.10583 -0.486831,-0.14816 -0.15875,-0.0423 -0.296333,-0.10584 -0.423332,-0.16934 -0.127,-0.0635 -0.22225,-0.11641 -0.296333,-0.20108 -0.07408,-0.0847 -0.116416,-0.17991 -0.116416,-0.29633 0,-0.17992 0.07408,-0.32808 0.222249,-0.43392 0.148167,-0.10583 0.349249,-0.15875 0.603248,-0.15875 0.243416,0 0.497415,0.0317 0.634998,0.0741 0.04233,0.41275 0.0635,0.53975 0.07408,0.59266 0.03175,0.127 0.105833,0.20109 0.243416,0.20109 h 0.433916 0.126999 0.04233 v -1.53458 h 0.01058 c -0.761998,-0.23284 -1.05833,-0.28575 -1.587495,-0.28575 -0.338666,0 -0.624415,0.0529 -0.878414,0.13758 -0.253999,0.0847 -0.476249,0.21167 -0.645581,0.35983 -0.169333,0.14817 -0.306916,0.32809 -0.391582,0.52917 -0.08467,0.20108 -0.127,0.41275 -0.127,0.635 0,0.24341 0.04233,0.44449 0.116416,0.61383 0.07408,0.16933 0.169333,0.30691 0.296333,0.42333 0.126999,0.11642 0.275165,0.21167 0.433915,0.28575 0.158749,0.0741 0.317499,0.14816 0.486832,0.20108 0.169333,0.0529 0.338665,0.10583 0.497415,0.15875 0.158749,0.0423 0.296332,0.0952 0.423332,0.15875 0.126999,0.0635 0.232832,0.127 0.306915,0.21167 0.07408,0.0847 0.105833,0.17991 0.105833,0.30691 0,0.0847 -0.01058,0.16933 -0.04233,0.254 -0.03175,0.0847 -0.08467,0.13758 -0.158749,0.20108 -0.07408,0.0635 -0.15875,0.10584 -0.275166,0.14817 -0.105833,0.0317 -0.243416,0.0529 -0.402165,0.0529 -0.232833,0 -0.571499,0 -0.857248,-0.0847 -0.04233,-0.42333 -0.0635,-0.5715 -0.07408,-0.62441 -0.03175,-0.127 -0.105833,-0.20109 -0.243416,-0.20109 h -0.433915 -0.127 -0.05292 v 1.00542 0.52916 c 0.391582,0.14817 1.047747,0.29633 1.725078,0.29633 0.349249,0 0.666748,-0.0423 0.93133,-0.13758 0.275166,-0.0847 0.497415,-0.21167 0.677331,-0.37042 0.179916,-0.15874 0.317499,-0.34924 0.412749,-0.57149 0.09525,-0.22225 0.148166,-0.46567 0.148166,-0.73025 0,-0.22225 -0.04233,-0.40217 -0.116416,-0.56092 z"
         id="path1012" />
      <path
         d="m 74.568697,105.77964 c 0.264582,0 0.518581,-0.0423 0.761997,-0.127 0.243416,-0.0847 0.465666,-0.20108 0.656165,-0.35983 l -0.391582,-0.635 c -0.03175,-0.0423 -0.05292,-0.0635 -0.07408,-0.0847 -0.02117,-0.0212 -0.0635,-0.0212 -0.105833,-0.0212 -0.03175,0 -0.05292,0 -0.08467,0.0212 -0.03175,0.0212 -0.07408,0.0423 -0.116416,0.0635 -0.04233,0.0212 -0.08467,0.0423 -0.137583,0.0635 -0.05292,0.0212 -0.116416,0.0212 -0.201082,0.0212 -0.137583,0 -0.254,-0.0423 -0.338666,-0.13758 -0.08467,-0.0953 -0.127,-0.22225 -0.127,-0.39158 v -2.94216 h 1.428746 v -0.93133 h -1.428746 v -1.714494 h -0.677331 c -0.07408,0 -0.148166,0.02117 -0.201083,0.0635 -0.05292,0.04233 -0.08467,0.08467 -0.09525,0.158749 l -0.275166,1.481665 -0.878414,0.13758 v 0.52917 c 0,0.0952 0.03175,0.15874 0.08467,0.20108 0.05292,0.0423 0.105833,0.0741 0.179917,0.0741 h 0.550331 v 3.02682 c 0,0.46567 0.127,0.83609 0.380999,1.10067 0.253999,0.26458 0.624415,0.40216 1.09008,0.40216 z"
         id="path1014" />
      <path
         d="m 78.950168,104.74248 c -0.01058,0 -0.03175,-0.0106 -0.0635,-0.0106 -0.03175,0 -0.08467,-0.0212 -0.158749,-0.0318 -0.07408,-0.0106 -0.190499,-0.0317 -0.317499,-0.0529 v -4.38149 h -1.301746 -0.804331 v 0.62442 c 0,0.17991 0.08467,0.28575 0.264583,0.32808 0.01058,0 0.03175,0.0106 0.0635,0.0106 0.03175,0 0.08467,0.0212 0.158749,0.0318 0.07408,0.0106 0.190499,0.0318 0.317499,0.0529 v 3.33374 c -0.127,0.0212 -0.243416,0.0423 -0.317499,0.0529 -0.07408,0.0106 -0.127,0.0212 -0.158749,0.0318 -0.03175,0 -0.05292,0.0106 -0.0635,0.0106 -0.179916,0.0423 -0.264583,0.14817 -0.264583,0.32808 v 0.62442 h 0.804331 1.301746 0.804331 v -0.62442 c 0,-0.17991 -0.08467,-0.28575 -0.264583,-0.32808 z m -0.338665,-6.064231 c 0,-0.116416 -0.03175,-0.222249 -0.07408,-0.328082 -0.04233,-0.105833 -0.105833,-0.1905 -0.179917,-0.264583 -0.07408,-0.07408 -0.158749,-0.126999 -0.264582,-0.169332 -0.105833,-0.04233 -0.211666,-0.07408 -0.328082,-0.07408 -0.116417,0 -0.22225,0.03175 -0.328083,0.07408 -0.105833,0.04233 -0.179916,0.09525 -0.253999,0.169332 -0.07408,0.07408 -0.137583,0.15875 -0.179916,0.264583 -0.04233,0.105833 -0.0635,0.211666 -0.0635,0.328082 0,0.116416 0.02117,0.222249 0.0635,0.317499 0.04233,0.09525 0.105833,0.1905 0.179916,0.264583 0.07408,0.07408 0.148166,0.137583 0.253999,0.179916 0.105833,0.04233 0.211666,0.0635 0.328083,0.0635 0.116416,0 0.222249,-0.02117 0.328082,-0.0635 0.105833,-0.04233 0.190499,-0.105833 0.264582,-0.179916 0.07408,-0.07408 0.137583,-0.169333 0.179917,-0.264583 0.04233,-0.09525 0.07408,-0.201083 0.07408,-0.317499 z"
         id="path1016" />
      <path
         d="m 83.75498,104.40381 c -0.05292,-0.0847 -0.137582,-0.11641 -0.243415,-0.11641 -0.08467,0 -0.148167,0.0212 -0.211666,0.0741 -0.0635,0.0529 -0.148167,0.10583 -0.232833,0.16933 -0.08467,0.0635 -0.201083,0.11642 -0.328082,0.16934 -0.127,0.0529 -0.296333,0.0741 -0.507999,0.0741 -0.211666,0 -0.391582,-0.0423 -0.560915,-0.11642 -0.169332,-0.0847 -0.306915,-0.20108 -0.423332,-0.34925 -0.116416,-0.15874 -0.201082,-0.34924 -0.264582,-0.57149 -0.0635,-0.22225 -0.09525,-0.48684 -0.09525,-0.77258 0,-0.27517 0.03175,-0.51859 0.08467,-0.74084 0.05292,-0.22224 0.148166,-0.41274 0.264582,-0.57149 0.116416,-0.15875 0.253999,-0.26459 0.423332,-0.34925 0.169333,-0.0847 0.370416,-0.127 0.603248,-0.127 0.179916,0 0.423332,0.0318 0.698498,0.10583 0.04233,0.42333 0.07408,0.67733 0.08467,0.762 0.03175,0.127 0.105833,0.20108 0.243416,0.20108 h 0.433916 0.126999 0.04233 l 0.01058,-1.67216 c -0.698498,-0.26458 -1.269996,-0.39158 -1.714495,-0.39158 -0.423332,0 -0.804331,0.0741 -1.132413,0.21166 -0.328082,0.13759 -0.603248,0.32809 -0.825497,0.58209 -0.22225,0.25399 -0.391582,0.55033 -0.507999,0.88899 -0.116416,0.33867 -0.169333,0.6985 -0.169333,1.10067 0,0.44449 0.0635,0.84666 0.1905,1.19591 0.126999,0.34925 0.306916,0.635 0.529165,0.87841 0.222249,0.24342 0.476248,0.42333 0.772581,0.55033 0.296332,0.127 0.603248,0.17992 0.941913,0.17992 0.1905,0 0.391582,-0.0106 0.582082,-0.0423 0.190499,-0.0318 0.380999,-0.0741 0.560915,-0.13759 0.179916,-0.0741 0.359832,-0.15875 0.529165,-0.27516 0.169332,-0.11642 0.317499,-0.26458 0.465665,-0.43392 z"
         id="path1018" />
    </g>
    <g
       aria-label="[logic]"
       id="text38292"
       style="font-size:10.5833px;line-height:1.25;font-family:Aleo;-inkscape-font-specification:Aleo;fill:#ffffff;stroke-width:0.264583">
      <path
         d="m 85.063338,107.20775 h 2.158993 v -0.508 c 0,-0.0952 -0.03175,-0.17992 -0.09525,-0.24342 -0.0635,-0.0635 -0.137583,-0.0952 -0.243416,-0.0952 h -0.740831 v -8.127971 h 0.740831 c 0.105833,0 0.179916,-0.03175 0.243416,-0.09525 0.0635,-0.0635 0.09525,-0.137583 0.09525,-0.232832 v -0.518582 h -2.158993 z"
         id="path936" />
      <path
         d="m 90.238563,104.62542 c -0.01058,0 -0.03175,0 -0.0635,-0.0106 -0.03175,-0.0106 -0.08467,-0.0212 -0.158749,-0.0318 -0.07408,-0.0106 -0.190499,-0.0318 -0.317499,-0.0529 v -6.815643 h -1.301746 -0.804331 v 0.624415 c 0,0.179916 0.08467,0.285749 0.264583,0.328082 0.01058,0 0.03175,0.01058 0.0635,0.01058 0.03175,0 0.08467,0.02117 0.158749,0.03175 0.07408,0.01058 0.1905,0.03175 0.317499,0.05292 v 5.767896 c -0.126999,0.0212 -0.243416,0.0423 -0.317499,0.0529 -0.07408,0.0106 -0.126999,0.0212 -0.158749,0.0318 -0.03175,0.0106 -0.05292,0.0106 -0.0635,0.0106 -0.179916,0.0423 -0.264583,0.14817 -0.264583,0.32808 v 0.62442 h 0.804331 1.301746 0.804331 v -0.62442 c 0,-0.17991 -0.08467,-0.28574 -0.264583,-0.32808 z"
         id="path938" />
      <path
         d="m 93.540541,100.06402 c -0.402165,0 -0.783164,0.0741 -1.111246,0.20108 -0.328083,0.127 -0.613832,0.30692 -0.846664,0.55033 -0.232833,0.24342 -0.423332,0.52917 -0.550332,0.87842 -0.127,0.34925 -0.190499,0.73025 -0.190499,1.15358 0,0.43391 0.0635,0.81491 0.190499,1.16416 0.127,0.34925 0.317499,0.64558 0.550332,0.889 0.232832,0.24341 0.518581,0.43391 0.846664,0.56091 0.328082,0.127 0.709081,0.1905 1.111246,0.1905 0.402165,0 0.772581,-0.0635 1.100663,-0.1905 0.328083,-0.127 0.613832,-0.3175 0.846664,-0.56091 0.232833,-0.24342 0.402166,-0.53975 0.529165,-0.889 0.127,-0.34925 0.1905,-0.73025 0.1905,-1.16416 0,-0.42333 -0.0635,-0.80433 -0.1905,-1.15358 -0.126999,-0.34925 -0.296332,-0.635 -0.529165,-0.87842 -0.232832,-0.24341 -0.518581,-0.42333 -0.846664,-0.55033 -0.328082,-0.127 -0.698498,-0.20108 -1.100663,-0.20108 z m 0,4.58257 c -0.455082,0 -0.793747,-0.14817 -1.015997,-0.45508 -0.222249,-0.30692 -0.338665,-0.74083 -0.338665,-1.32292 0,-0.58208 0.116416,-1.03716 0.338665,-1.34407 0.22225,-0.30692 0.560915,-0.46567 1.015997,-0.46567 0.455082,0 0.783164,0.15875 0.99483,0.46567 0.211666,0.30691 0.328083,0.75141 0.328083,1.33349 0,0.58208 -0.116417,1.02658 -0.328083,1.3335 -0.211666,0.30691 -0.539748,0.45508 -0.99483,0.45508 z"
         id="path940" />
      <path
         d="m 98.906255,100.05344 c -0.306916,0 -0.603248,0.0423 -0.867831,0.127 -0.264582,0.0847 -0.486831,0.20108 -0.677331,0.34925 -0.190499,0.14816 -0.349249,0.33866 -0.455082,0.55033 -0.105833,0.21166 -0.158749,0.46566 -0.158749,0.73024 0,0.32809 0.07408,0.62442 0.232832,0.86783 0.15875,0.24342 0.380999,0.4445 0.656165,0.59267 -0.116416,0.0635 -0.232833,0.127 -0.317499,0.20108 -0.08467,0.0741 -0.15875,0.15875 -0.222249,0.24342 -0.0635,0.0847 -0.09525,0.16933 -0.127,0.254 -0.03175,0.0847 -0.04233,0.16933 -0.04233,0.254 0,0.20108 0.04233,0.35983 0.126999,0.48683 0.08467,0.127 0.179917,0.22225 0.317499,0.29633 -0.275165,0.10583 -0.486831,0.23283 -0.645581,0.40217 -0.158749,0.16933 -0.232832,0.39158 -0.232832,0.64558 0,0.1905 0.05292,0.37041 0.148166,0.53975 0.09525,0.16933 0.243416,0.32808 0.444498,0.45508 0.201083,0.127 0.444499,0.23283 0.751415,0.3175 0.306915,0.0847 0.666748,0.11641 1.079496,0.11641 0.412749,0 0.783164,-0.0529 1.111242,-0.15875 0.32809,-0.10583 0.60325,-0.24341 0.8255,-0.42333 0.22225,-0.17991 0.39158,-0.381 0.508,-0.60325 0.11642,-0.22225 0.17992,-0.45508 0.17992,-0.69849 0,-0.254 -0.0423,-0.46567 -0.14817,-0.635 -0.10583,-0.16934 -0.23283,-0.28575 -0.40217,-0.381 -0.16933,-0.0952 -0.33866,-0.16933 -0.55033,-0.21167 -0.21166,-0.0423 -0.42333,-0.0741 -0.645578,-0.0953 -0.222249,-0.0212 -0.423332,-0.0212 -0.634998,-0.0317 -0.211666,0 -0.391582,-0.0212 -0.560915,-0.0423 -0.169333,-0.0212 -0.296332,-0.0529 -0.402165,-0.10583 -0.105833,-0.0529 -0.148166,-0.13759 -0.148166,-0.24342 0,-0.127 0.08467,-0.23283 0.253999,-0.33866 0.190499,0.0423 0.402165,0.0529 0.603248,0.0529 0.306916,0 0.582081,-0.0423 0.836081,-0.127 0.253999,-0.0847 0.486834,-0.20108 0.677334,-0.34925 0.1905,-0.14816 0.33866,-0.33866 0.4445,-0.55033 0.10583,-0.21166 0.15874,-0.46566 0.15874,-0.73025 0,-0.11641 -0.0106,-0.21166 -0.0318,-0.31749 -0.0212,-0.10584 -0.0423,-0.20109 -0.0741,-0.29634 l 0.48683,-0.0847 c 0.10584,-0.0212 0.16934,-0.0529 0.21167,-0.0953 0.0423,-0.0423 0.0635,-0.10584 0.0635,-0.1905 v -0.48683 h -1.55575 c -0.169328,-0.0953 -0.359828,-0.16934 -0.56091,-0.21167 -0.201083,-0.0423 -0.423332,-0.0741 -0.656165,-0.0741 z m 1.428745,5.76789 c 0,0.10584 -0.0212,0.21167 -0.0741,0.29634 -0.0529,0.0847 -0.13759,0.16933 -0.254,0.23283 -0.116418,0.0635 -0.254001,0.10583 -0.433917,0.14817 -0.179916,0.0423 -0.391582,0.0635 -0.634998,0.0635 -0.243416,0 -0.433915,-0.0212 -0.603248,-0.0529 -0.169333,-0.0317 -0.306916,-0.0741 -0.412749,-0.13758 -0.105833,-0.0635 -0.179916,-0.13759 -0.222249,-0.22225 -0.04233,-0.0847 -0.07408,-0.16934 -0.07408,-0.26459 0,-0.14816 0.05292,-0.27516 0.137583,-0.38099 0.08467,-0.10584 0.211666,-0.20109 0.359832,-0.28575 0.158749,0.0212 0.328082,0.0318 0.497415,0.0423 0.169333,0.0106 0.338665,0.0106 0.507998,0.0212 0.169333,0.0106 0.317499,0.0212 0.465665,0.0423 0.148167,0.0212 0.285749,0.0423 0.391582,0.0847 0.105829,0.0423 0.190499,0.0952 0.253999,0.15875 0.0635,0.0635 0.0952,0.14816 0.0952,0.25399 z m -1.428745,-3.09032 c -0.15875,0 -0.296332,-0.0212 -0.423332,-0.0635 -0.127,-0.0423 -0.222249,-0.10583 -0.306916,-0.1905 -0.08467,-0.0847 -0.137583,-0.16933 -0.179916,-0.27516 -0.04233,-0.10584 -0.05292,-0.23284 -0.05292,-0.35984 0,-0.26458 0.07408,-0.47624 0.232832,-0.63499 0.15875,-0.15875 0.412749,-0.23284 0.730248,-0.23284 0.317499,0 0.560915,0.0741 0.719664,0.23284 0.15875,0.15875 0.243416,0.37041 0.243416,0.63499 0,0.127 -0.02117,0.254 -0.0635,0.35984 -0.04233,0.10583 -0.09525,0.21166 -0.179916,0.28575 -0.07408,0.0741 -0.179916,0.13758 -0.296332,0.17991 -0.116416,0.0423 -0.264583,0.0635 -0.423332,0.0635 z"
         id="path942" />
      <path
         d="m 104.67414,104.62542 c -0.0106,0 -0.0317,-0.0106 -0.0635,-0.0106 -0.0318,0 -0.0847,-0.0212 -0.15875,-0.0318 -0.0741,-0.0106 -0.1905,-0.0318 -0.3175,-0.0529 v -4.38148 h -1.30174 -0.80433 v 0.62441 c 0,0.17992 0.0847,0.28575 0.26458,0.32808 0.0106,0 0.0318,0.0106 0.0635,0.0106 0.0318,0 0.0847,0.0212 0.15875,0.0317 0.0741,0.0106 0.1905,0.0318 0.3175,0.0529 v 3.33374 c -0.127,0.0212 -0.24342,0.0423 -0.3175,0.0529 -0.0741,0.0106 -0.127,0.0212 -0.15875,0.0318 -0.0317,0 -0.0529,0.0106 -0.0635,0.0106 -0.17992,0.0423 -0.26458,0.14817 -0.26458,0.32808 v 0.62442 h 0.80433 1.30174 0.80433 v -0.62442 c 0,-0.17991 -0.0847,-0.28574 -0.26458,-0.32808 z m -0.33867,-6.064229 c 0,-0.116416 -0.0317,-0.222249 -0.0741,-0.328082 -0.0423,-0.105833 -0.10583,-0.190499 -0.17991,-0.264582 -0.0741,-0.07408 -0.15875,-0.127 -0.26459,-0.169333 -0.10583,-0.04233 -0.21166,-0.07408 -0.32808,-0.07408 -0.11642,0 -0.22225,0.03175 -0.32808,0.07408 -0.10583,0.04233 -0.17992,0.09525 -0.254,0.169333 -0.0741,0.07408 -0.13758,0.158749 -0.17992,0.264582 -0.0423,0.105833 -0.0635,0.211666 -0.0635,0.328082 0,0.116417 0.0212,0.22225 0.0635,0.317499 0.0423,0.09525 0.10584,0.1905 0.17992,0.264583 0.0741,0.07408 0.14817,0.137583 0.254,0.179916 0.10583,0.04233 0.21166,0.0635 0.32808,0.0635 0.11642,0 0.22225,-0.02117 0.32808,-0.0635 0.10584,-0.04233 0.1905,-0.105833 0.26459,-0.179916 0.0741,-0.07408 0.13758,-0.169333 0.17991,-0.264583 0.0423,-0.09525 0.0741,-0.201082 0.0741,-0.317499 z"
         id="path944" />
      <path
         d="m 109.47895,104.28676 c -0.0529,-0.0847 -0.13758,-0.11642 -0.24341,-0.11642 -0.0847,0 -0.14817,0.0212 -0.21167,0.0741 -0.0635,0.0529 -0.14817,0.10584 -0.23283,0.16934 -0.0847,0.0635 -0.20108,0.11641 -0.32808,0.16933 -0.127,0.0529 -0.29634,0.0741 -0.508,0.0741 -0.21167,0 -0.39158,-0.0423 -0.56092,-0.11641 -0.16933,-0.0847 -0.30691,-0.20109 -0.42333,-0.34925 -0.11642,-0.15875 -0.20108,-0.34925 -0.26458,-0.5715 -0.0635,-0.22225 -0.0953,-0.48683 -0.0953,-0.77258 0,-0.27517 0.0318,-0.51858 0.0847,-0.74083 0.0529,-0.22225 0.14817,-0.41275 0.26459,-0.5715 0.11641,-0.15875 0.254,-0.26458 0.42333,-0.34925 0.16933,-0.0847 0.37041,-0.127 0.60325,-0.127 0.17991,0 0.42333,0.0317 0.6985,0.10583 0.0423,0.42334 0.0741,0.67733 0.0847,0.762 0.0318,0.127 0.10583,0.20108 0.24342,0.20108 h 0.43391 0.127 0.0423 l 0.0106,-1.67216 c -0.6985,-0.26458 -1.27,-0.39158 -1.7145,-0.39158 -0.42333,0 -0.80433,0.0741 -1.13241,0.21167 -0.32808,0.13758 -0.60325,0.32808 -0.8255,0.58208 -0.22225,0.254 -0.39158,0.55033 -0.50799,0.88899 -0.11642,0.33867 -0.16934,0.6985 -0.16934,1.10067 0,0.4445 0.0635,0.84666 0.1905,1.19591 0.127,0.34925 0.30692,0.635 0.52917,0.87841 0.22225,0.24342 0.47625,0.42334 0.77258,0.55034 0.29633,0.127 0.60325,0.17991 0.94191,0.17991 0.1905,0 0.39158,-0.0106 0.58208,-0.0423 0.1905,-0.0317 0.381,-0.0741 0.56092,-0.13758 0.17991,-0.0741 0.35983,-0.15875 0.52916,-0.27517 0.16934,-0.11642 0.3175,-0.26458 0.46567,-0.43392 z"
         id="path946" />
      <path
         d="m 110.1457,107.20775 h 2.15899 v -9.821305 h -2.15899 v 0.518582 c 0,0.09525 0.0317,0.169333 0.0952,0.232832 0.0635,0.0635 0.13758,0.09525 0.24341,0.09525 h 0.74083 v 8.127971 h -0.74083 c -0.10583,0 -0.17991,0.0318 -0.24341,0.0952 -0.0635,0.0635 -0.0952,0.14817 -0.0952,0.24342 z"
         id="path948" />
    </g>
    <path
       class="cls-1"
       d="m 35.870624,100.26568 v -1.597121 a 1.8531512,1.7337428 0 0 1 1.851767,-1.730937 h 0.768206 v 1.111511 h -0.768206 a 0.66416315,0.62136753 0 0 0 -0.663932,0.619858 v 1.597119 c 0,1.03985 -0.681004,1.82396 -1.231436,2.28778 0.550432,0.46294 1.231436,1.24704 1.231436,2.28776 v 1.59712 a 0.66531655,0.62244667 0 0 0 0.663932,0.62375 h 0.768206 v 1.11151 h -0.768206 a 1.8533819,1.7339586 0 0 1 -1.851767,-1.73266 v -1.59713 c 0,-0.79532 -0.732679,-1.40784 -1.107323,-1.66964 v -1.24058 c 0.377412,-0.26179 1.107323,-0.8741 1.107323,-1.66834 z"
       id="path84"
       style="fill:#c5e8e4;fill-opacity:1;stroke-width:0.0223136" />
    <path
       class="cls-3"
       d="m 32.234913,102.34366 h 2.036091 v 0.40231 h -2.028247 c -0.07452,0.18389 -0.253761,0.31403 -0.461385,0.31403 -0.274523,0 -0.497141,-0.22641 -0.497141,-0.50526 0,-0.27884 0.222618,-0.50525 0.497141,-0.50525 0.201625,4.3e-4 0.374875,0.12108 0.453541,0.29417 z"
       id="path86"
       style="fill:#c5e8e4;fill-rule:evenodd;stroke-width:0.0223136" />
    <path
       class="cls-3"
       d="m 35.915378,101.84078 v -3.043156 a 1.3774637,1.2887064 0 0 0 -0.376028,-0.845181 1.1638426,1.08885 0 0 0 -1.69605,-0.01252 1.3841538,1.2949653 0 0 0 -0.386871,0.830935 v 0.01425 a 1.4210645,1.3294978 0 0 0 0.110502,0.502014 1.2833413,1.2006487 0 0 0 0.458616,0.527915 1.173301,1.0976989 0 0 0 0.617102,0.194243 c 0.02422,-0.256186 0.23692,-0.455826 0.495526,-0.455826 0.274755,0 0.497373,0.226402 0.497373,0.505896 0,0.2795 -0.22331,0.50676 -0.498064,0.50676 a 0.47661028,0.44589974 0 0 1 -0.359189,-0.15582 c -0.03091,0.002 -0.0609,0.003 -0.09112,0.003 v 0 a 1.5484067,1.4486345 0 0 1 -0.872478,-0.25727 1.707123,1.5971239 0 0 1 -0.608566,-0.701002 1.8861402,1.7646061 0 0 1 -0.138415,-0.527267 1.1885267,1.1119436 0 0 0 -0.144876,-0.0084 1.1437725,1.0700731 0 0 0 -0.844795,0.355468 1.3497806,1.262807 0 0 0 -0.34996,0.856831 c 0,0.18972 0.02861,0.32504 0.0812,0.44569 0.04614,0.10424 0.113962,0.20762 0.199318,0.32827 h 1.364545 c 0.06921,-0.19424 0.253761,-0.33302 0.468074,-0.33302 0.275448,0 0.498066,0.2264 0.498066,0.50525 0,0.27885 -0.222618,0.50525 -0.498066,0.50525 -0.192627,0 -0.360803,-0.11201 -0.442928,-0.27496 h -1.489812 v 0 a 1.1995999,1.1223032 0 0 0 -0.880782,0.36582 1.3809241,1.2919438 0 0 0 -0.358958,0.88274 1.3954577,1.305541 0 0 0 0.319739,0.83892 1.1945247,1.117555 0 0 0 0.79289,0.40252 v 0 l 0.01754,0.002 h 0.01592 0.0143 v 0 h 0.01176 0.01246 0.01269 0.04176 v 0 h 1.208136 c 0.08282,-0.16295 0.250301,-0.27497 0.443621,-0.27497 0.274755,0 0.497373,0.22641 0.497373,0.50526 0,0.27885 -0.222618,0.50525 -0.497373,0.50525 -0.215928,0 -0.399328,-0.13878 -0.468767,-0.3328 h -1.077564 a 1.4411348,1.3482748 0 0 0 -0.01269,1.30532 1.2888779,1.2058286 0 0 0 0.525748,0.49036 1.1534615,1.0791378 0 0 0 0.542588,0.1254 1.8455383,1.7266204 0 0 1 0.137262,-0.50677 1.7145051,1.6040304 0 0 1 0.608566,-0.70187 1.5537126,1.4535986 0 0 1 0.873401,-0.25749 v 0 c 0.0376,0 0.07613,0.001 0.115346,0.004 a 0.47314989,0.44266232 0 0 1 0.335657,-0.13229 c 0.274755,0 0.497373,0.22726 0.497373,0.50611 0,0.27885 -0.222618,0.50504 -0.497373,0.50504 -0.266911,0 -0.484453,-0.21302 -0.497141,-0.48086 a 1.1931406,1.1162601 0 0 0 -0.615487,0.19424 1.2870323,1.2041019 0 0 0 -0.458617,0.52791 1.4464407,1.3532388 0 0 0 -0.110501,0.52878 v 0 a 1.3871528,1.2977712 0 0 0 0.375798,0.84583 1.1659188,1.0907924 0 0 0 1.708737,0 1.3361697,1.2500732 0 0 0 0.265527,-0.37922 1.4044547,1.3139582 0 0 0 0.110502,-0.46661 v -3.16511 c 0,-0.10188 0.0812,-0.18561 0.181554,-0.18561 h 0.03276 c 0.100351,0 0.181555,0.0837 0.181555,0.18561 v 3.16597 0.007 a 1.827775,1.7100017 0 0 1 -0.49645,1.12791 c -0.29321,0.28662 -0.692077,0.46209 -1.128547,0.46209 -0.43647,0 -0.835567,-0.17547 -1.128547,-0.46209 a 1.8167018,1.699642 0 0 1 -0.477302,-0.92179 1.5193395,1.4214403 0 0 1 -0.725758,-0.16533 1.6865913,1.5779152 0 0 1 -0.694153,-0.64748 1.9075946,1.7846781 0 0 1 -0.07774,-1.53971 1.5947759,1.492016 0 0 1 -0.886551,-0.50764 1.8425394,1.7238147 0 0 1 -0.423781,-1.11064 c 0,-0.45972 0.182708,-0.87022 0.477302,-1.16697 a 1.5963907,1.4935266 0 0 1 0.807422,-0.44418 1.8256988,1.7080593 0 0 1 -0.111654,-0.20482 c -0.07613,-0.17318 -0.117191,-0.35966 -0.117191,-0.60721 a 1.7993999,1.6834549 0 0 1 0.466459,-1.141946 c 0.288827,-0.292014 0.685618,-0.473309 1.125086,-0.473309 a 1.4180655,1.326692 0 0 1 0.168175,0.0095 1.7980158,1.68216 0 0 1 0.482378,-0.877123 c 0.291364,-0.277986 0.68308,-0.447196 1.112628,-0.447196 0.436932,0 0.835338,0.175468 1.128547,0.462088 a 1.8296206,1.7117283 0 0 1 0.49645,1.127915 v 0.0071 3.043161 a 1.0060491,0.94122394 0 0 1 -0.261375,0.63949 0.85748324,0.80223107 0 0 1 -0.629558,0.26526 h -0.387563 v -0.4023 h 0.387563 a 0.47661028,0.44589974 0 0 0 0.34996,-0.1472 0.56150505,0.52532428 0 0 0 0.145797,-0.35568 z"
       id="path88"
       style="fill:#c5e8e4;fill-opacity:1;fill-rule:evenodd;stroke-width:0.0223136" />
    <path
       class="cls-2"
       d="m 43.563751,100.26568 v -1.597121 a 1.8531512,1.7337428 0 0 0 -1.851767,-1.730937 h -0.768206 v 1.111511 h 0.768206 a 0.66416315,0.62136753 0 0 1 0.663932,0.619858 v 1.597119 c 0,1.03985 0.681004,1.82396 1.231435,2.28778 -0.550431,0.46294 -1.231435,1.24704 -1.231435,2.28776 v 1.59712 a 0.66531655,0.62244667 0 0 1 -0.663932,0.62375 h -0.768206 v 1.11151 h 0.768206 a 1.8533819,1.7339586 0 0 0 1.851767,-1.73266 v -1.59713 c 0,-0.79532 0.732679,-1.40784 1.107322,-1.66964 v -1.24058 c -0.377412,-0.26179 -1.107322,-0.8741 -1.107322,-1.66834 z"
       id="path90"
       style="fill:#ffffff;stroke-width:0.0223136" />
    <path
       class="cls-4"
       d="m 47.19946,102.34366 h -2.036089 v 0.40231 h 2.028246 c 0.07452,0.18389 0.253762,0.31403 0.461384,0.31403 0.274525,0 0.497143,-0.22641 0.497143,-0.50526 0,-0.27884 -0.222618,-0.50525 -0.497143,-0.50525 -0.201624,4.3e-4 -0.374874,0.12108 -0.453541,0.29417 z"
       id="path92"
       style="fill:#ffffff;fill-rule:evenodd;stroke-width:0.0223136" />
    <path
       class="cls-4"
       d="m 43.518996,101.84078 v -3.043156 a 1.3774637,1.2887064 0 0 1 0.376028,-0.845181 1.1638426,1.08885 0 0 1 1.69605,-0.01252 1.3841538,1.2949653 0 0 1 0.386872,0.830935 v 0.01425 a 1.4210645,1.3294978 0 0 1 -0.110502,0.502014 1.2833413,1.2006487 0 0 1 -0.458617,0.527915 1.173301,1.0976989 0 0 1 -0.617102,0.194243 c -0.02307,-0.256186 -0.236921,-0.455826 -0.495527,-0.455826 -0.274754,0 -0.497372,0.226402 -0.497372,0.505896 0,0.2795 0.22331,0.50676 0.498065,0.50676 a 0.47661028,0.44589974 0 0 0 0.359187,-0.15582 c 0.03092,0.002 0.0609,0.003 0.09112,0.003 v 0 a 1.5484067,1.4486345 0 0 0 0.872479,-0.25727 1.707123,1.5971239 0 0 0 0.608566,-0.701004 1.8861402,1.7646061 0 0 0 0.138416,-0.527267 1.1885267,1.1119436 0 0 1 0.144875,-0.0084 1.1437725,1.0700731 0 0 1 0.844795,0.355468 1.3497806,1.262807 0 0 1 0.34996,0.856833 c 0,0.18971 -0.02861,0.32504 -0.0812,0.44569 -0.04614,0.10424 -0.113962,0.20762 -0.199317,0.32827 h -1.364546 c -0.06921,-0.19424 -0.253762,-0.33302 -0.468074,-0.33302 -0.275447,0 -0.498065,0.2264 -0.498065,0.50525 0,0.27885 0.222618,0.50525 0.498065,0.50525 0.192628,0 0.360802,-0.11201 0.44293,-0.27496 h 1.489348 v 0 a 1.1995999,1.1223032 0 0 1 0.880783,0.36582 1.3809241,1.2919438 0 0 1 0.358957,0.88274 1.3954577,1.305541 0 0 1 -0.319739,0.84043 1.1945247,1.117555 0 0 1 -0.792429,0.40101 v 0 l -0.01753,0.002 h -0.01592 -0.0143 v 0 h -0.01176 -0.01246 -0.01269 -0.04176 v 0 h -1.208826 c -0.08282,-0.16295 -0.250301,-0.27497 -0.443621,-0.27497 -0.274755,0 -0.497374,0.22641 -0.497374,0.50526 0,0.27885 0.222619,0.50525 0.497374,0.50525 0.215928,0 0.399327,-0.13878 0.468766,-0.3328 h 1.079409 a 1.4411348,1.3482748 0 0 1 0.01154,1.30532 1.2888779,1.2058286 0 0 1 -0.525747,0.49036 1.1534615,1.0791378 0 0 1 -0.542589,0.1254 1.8455383,1.7266204 0 0 0 -0.138415,-0.50677 1.7145051,1.6040304 0 0 0 -0.608566,-0.70187 1.5537126,1.4535986 0 0 0 -0.872248,-0.25749 v 0 c -0.0376,0 -0.07613,0.001 -0.115347,0.004 a 0.47314989,0.44266232 0 0 0 -0.335656,-0.13229 c -0.274755,0 -0.497373,0.22726 -0.497373,0.50611 0,0.27885 0.222618,0.50504 0.497373,0.50504 0.26691,0 0.484453,-0.21302 0.497141,-0.48086 a 1.1931406,1.1162601 0 0 1 0.615487,0.19424 1.2870323,1.2041019 0 0 1 0.458617,0.52791 1.4464407,1.3532388 0 0 1 0.110501,0.52878 v 0 a 1.3871528,1.2977712 0 0 1 -0.375798,0.84583 1.1659188,1.0907924 0 0 1 -1.708737,0 1.3361697,1.2500732 0 0 1 -0.265528,-0.37922 1.4044547,1.3139582 0 0 1 -0.110501,-0.46661 v -3.16511 c 0,-0.10188 -0.0812,-0.18561 -0.181555,-0.18561 h -0.03276 c -0.100351,0 -0.181554,0.0837 -0.181554,0.18561 v 3.16597 0.007 a 1.827775,1.7100017 0 0 0 0.49645,1.12791 c 0.29321,0.28662 0.692077,0.46209 1.128547,0.46209 0.436469,0 0.835567,-0.17547 1.128546,-0.46209 a 1.8167018,1.699642 0 0 0 0.477302,-0.92179 1.5193395,1.4214403 0 0 0 0.725759,-0.16533 1.6865913,1.5779152 0 0 0 0.694152,-0.64748 1.9075946,1.7846781 0 0 0 0.07774,-1.53971 1.5947759,1.492016 0 0 0 0.886551,-0.50764 1.8425394,1.7238147 0 0 0 0.423781,-1.11064 c 0,-0.45972 -0.182709,-0.87022 -0.477303,-1.16697 a 1.5963907,1.4935266 0 0 0 -0.807422,-0.44418 1.8256988,1.7080593 0 0 0 0.107965,-0.20525 c 0.07613,-0.17374 0.11719,-0.36022 0.11719,-0.60777 a 1.7993999,1.6834549 0 0 0 -0.466464,-1.142418 c -0.285136,-0.291583 -0.681928,-0.472878 -1.121396,-0.472878 a 1.4180655,1.326692 0 0 0 -0.168174,0.0095 1.7980158,1.68216 0 0 0 -0.482378,-0.877123 c -0.291365,-0.277986 -0.68308,-0.447195 -1.112629,-0.447195 -0.436931,0 -0.835337,0.175468 -1.128547,0.462087 a 1.8296206,1.7117283 0 0 0 -0.49645,1.127915 v 0.0071 3.043162 a 1.0060491,0.94122394 0 0 0 0.261375,0.6395 0.85748324,0.80223107 0 0 0 0.629559,0.26526 h 0.387563 v -0.40231 h -0.387563 a 0.47661028,0.44589974 0 0 1 -0.34996,-0.14719 0.56150505,0.52532428 0 0 1 -0.145798,-0.35568 z"
       id="path94"
       style="fill:#ffffff;fill-rule:evenodd;stroke-width:0.0223136" />
  </g>
</svg>
