<svg id="Layer_1" data-name="Layer 1" xmlns="http://www.w3.org/2000/svg" viewBox="0 0 900 261.32"><defs><style>.cls-1,.cls-3{fill:#d38a59;}.cls-2,.cls-4{fill:#e6e7e8;}.cls-3,.cls-4{fill-rule:evenodd;}</style></defs><path class="cls-1" d="M420.84,144.77H418.9a14.62,14.62,0,0,0-1.95.13h-3.6a24.26,24.26,0,0,1-9.07-1.79,25.8,25.8,0,0,1-13.68-12.69,21.26,21.26,0,0,1-2.16-9.5v-62a21,21,0,0,1,1.94-8.74,25.76,25.76,0,0,1,5.26-7.59,26.26,26.26,0,0,1,7.85-5.36,23.74,23.74,0,0,1,9.86-2h17.28a21.78,21.78,0,0,1,9.29,2,28,28,0,0,1,7.78,5.36A25.85,25.85,0,0,1,453,50.07,19.63,19.63,0,0,1,455,58.43v16.7H428.62V67.35c0-1.1,0-2.18-.08-3.25a25.37,25.37,0,0,1,.08-3.25,9.36,9.36,0,0,0-.65-5,3.88,3.88,0,0,0-2.66-2.3,9.74,9.74,0,0,0-1.59-.13h-3.89a9,9,0,0,0-3.45,1.21,3.8,3.8,0,0,0-1.88,2.74v63.52q.44,4,2.24,4.78a15.3,15.3,0,0,0,6,.83h.58a6.71,6.71,0,0,0,3.82-1,3.22,3.22,0,0,0,1.51-2.8V101.53H420.7V84.32l34.27.12v37.12a19.69,19.69,0,0,1-2.16,9,24.78,24.78,0,0,1-5.76,7.46,27.81,27.81,0,0,1-18.29,6.89c-1,0-1.9,0-2.81-.07s-1.8-.06-2.66-.06Z"/><path class="cls-1" d="M541.37,36.62V143.5H514.73l-21-57.65V143.5H467.93V36.62h27.36l20.16,54V36.62Z"/><path class="cls-1" d="M577.66,144.9a24.77,24.77,0,0,1-9.14-1.79,26.83,26.83,0,0,1-8.07-4.91,24.13,24.13,0,0,1-5.68-7.52,21.29,21.29,0,0,1-2.16-9.5V58.94a21.19,21.19,0,0,1,2.08-9.31,24.7,24.7,0,0,1,5.55-7.53,27,27,0,0,1,7.85-5,22.66,22.66,0,0,1,8.85-1.85h16.28a23.63,23.63,0,0,1,9,1.79,27.84,27.84,0,0,1,8,5A24.48,24.48,0,0,1,616,49.56a21,21,0,0,1,2.16,9.38l.14,62.24a21.29,21.29,0,0,1-2.16,9.5,23.62,23.62,0,0,1-5.76,7.52,28.07,28.07,0,0,1-8.06,4.91,24.26,24.26,0,0,1-9.07,1.79Zm6.2-91.45a6.18,6.18,0,0,0-4.18,1.66,4.92,4.92,0,0,0-1.59,4.46,15,15,0,0,1,.08,2.49c0,.81-.08,1.59-.08,2.36v49.49a20.05,20.05,0,0,0-.07,2.87c.05.89.07,2.1.07,3.63a5.25,5.25,0,0,0,1.37,4.53,5.08,5.08,0,0,0,4,1.46h.29q2,0,3.6-.12a8.29,8.29,0,0,0,2.81-.7,4.05,4.05,0,0,0,1.87-1.79,8.4,8.4,0,0,0,.79-3.38c0-1.61,0-3.19-.07-4.72s0-3.06.07-4.59V64.42c0-.77,0-1.55-.07-2.36a14.92,14.92,0,0,1,.07-2.49,5.18,5.18,0,0,0-1.65-4.33A6.45,6.45,0,0,0,587,53.45Z"/><path class="cls-1" d="M653.41,145a27.84,27.84,0,0,1-10.3-1.85,24.63,24.63,0,0,1-8.06-5.1,23.33,23.33,0,0,1-5.26-7.53,22.45,22.45,0,0,1-1.87-9.12V106.38h25.49v10.78a14.67,14.67,0,0,0,.65,4.53,7,7,0,0,0,2.3,3.38A7.27,7.27,0,0,0,661,126.4a9.52,9.52,0,0,0,5.47-1.72,5.83,5.83,0,0,0,2.16-5,18.14,18.14,0,0,0-3.09-10.59,41.49,41.49,0,0,0-7.63-8.23q-4.55-3.75-9.94-7.52a68.62,68.62,0,0,1-9.94-8.42A42.57,42.57,0,0,1,630.44,74a33.69,33.69,0,0,1-3.1-15,22.58,22.58,0,0,1,1.95-9.25A22.85,22.85,0,0,1,634.76,42,26.92,26.92,0,0,1,643,36.87,27.61,27.61,0,0,1,653.41,35a22.16,22.16,0,0,0,2.3.13H658c1.53,0,3,0,4.53-.07s3-.06,4.54-.06a21.21,21.21,0,0,1,8.64,1.85,24.9,24.9,0,0,1,7.42,5,25.81,25.81,0,0,1,5.25,7.47,21,21,0,0,1,2,9.12V74.24H666.08v-9c0-1.28,0-2.57-.07-3.89a11.7,11.7,0,0,0-.72-3.7,6.77,6.77,0,0,0-2-2.87,5.72,5.72,0,0,0-3.81-1.15q.13,0-.36.06c-.34,0-.46.07-.36.07a5.35,5.35,0,0,0-3.89,1.46A5.64,5.64,0,0,0,653,59.7a18.94,18.94,0,0,0,3.09,10.84A42.68,42.68,0,0,0,663.7,79q4.54,3.9,9.94,7.72a67.43,67.43,0,0,1,9.94,8.61,44.94,44.94,0,0,1,7.63,11,34,34,0,0,1,3.1,15.18,20.47,20.47,0,0,1-2.16,9.37,24.94,24.94,0,0,1-5.76,7.46,26.26,26.26,0,0,1-8.07,4.91,25,25,0,0,1-9.07,1.73Z"/><path class="cls-1" d="M698.48,53.45V36.62h73.16V53.45H747.87V143.5H722.24v-90Z"/><path class="cls-1" d="M783.59,36.49h25.78v107H783.59Z"/><path class="cls-1" d="M851.56,35.09q2.16.12,4.32.12h10.65A26.59,26.59,0,0,1,885,42.48a24.42,24.42,0,0,1,5.41,7.66,22,22,0,0,1,1.94,9V75.9H866.39V66.46a69.88,69.88,0,0,0-.07-7.2,7.3,7.3,0,0,0-1.23-3.9,4.35,4.35,0,0,0-3-1.53,42.72,42.72,0,0,0-5.26-.25,9.2,9.2,0,0,0-4.1.76c-1,.51-1.51,1.75-1.51,3.7v63.9c0,2.13.81,3.4,2.45,3.83a20.71,20.71,0,0,0,5.18.63,6.46,6.46,0,0,0,4-1.4,7.83,7.83,0,0,0,2.3-3.44,18.44,18.44,0,0,0,1-5c.15-1.87.22-3.86.22-6v-4h25.92v13.9a22.44,22.44,0,0,1-1.94,9.12,24.81,24.81,0,0,1-5.41,7.78,26.84,26.84,0,0,1-8.13,5.42,25.15,25.15,0,0,1-10.15,2,9.61,9.61,0,0,0-1.73-.13h-8.64a24.82,24.82,0,0,0-2.59.13h-2.16a25.82,25.82,0,0,1-10.16-2,26.5,26.5,0,0,1-8.13-5.29A25.11,25.11,0,0,1,827.8,130a21.16,21.16,0,0,1-2-9.06V59.06a21.15,21.15,0,0,1,2-9.05,25.11,25.11,0,0,1,5.47-7.65,26.52,26.52,0,0,1,18.29-7.27Z"/><path class="cls-2" d="M522.44,217V170.7H532v40h11.1V217Z"/><path class="cls-2" d="M599.44,207.36a9.79,9.79,0,0,1-.87,4.15,10.12,10.12,0,0,1-2.34,3.23,10.88,10.88,0,0,1-7.32,2.84h-6.67a11,11,0,0,1-7.33-2.82,9.74,9.74,0,0,1-3.21-7.4v-27a9.44,9.44,0,0,1,.9-4.14A10.52,10.52,0,0,1,575,173a10.8,10.8,0,0,1,7.33-2.84h6.61a10.11,10.11,0,0,1,3.89.77,11.13,11.13,0,0,1,3.37,2.1,10.15,10.15,0,0,1,2.37,3.2,9.44,9.44,0,0,1,.9,4.14ZM581.11,182a8.64,8.64,0,0,0-.06,1v21.78c0,.52,0,1,0,1.46s.07,1,.16,1.69a2.36,2.36,0,0,0,1.18,2.26,6.16,6.16,0,0,0,2.75.55c.62,0,1.2,0,1.74,0a4.48,4.48,0,0,0,1.44-.33,2.92,2.92,0,0,0,1.06-.83,3.24,3.24,0,0,0,.56-1.6q.06-1,.09-2.07c0-.69,0-1.37,0-2.07V182q0-.5,0-1t0-1a2.77,2.77,0,0,0-.94-2A3.51,3.51,0,0,0,587,177s-.21-.05-.63-.05h-.68a8.15,8.15,0,0,0-2.62.33,2.65,2.65,0,0,0-1.37,1,3.33,3.33,0,0,0-.53,1.58A19.66,19.66,0,0,0,581.11,182Z"/><path class="cls-2" d="M641.9,210.73a8.39,8.39,0,0,0,1,.06h1.56a1.93,1.93,0,0,0,.62-.11,3.2,3.2,0,0,0,1.9-.89,2.74,2.74,0,0,0,.72-2v-9.33h-4.8V192h14.47v15.35a9.52,9.52,0,0,1-.78,3.82,10.77,10.77,0,0,1-2.06,3.09,11.07,11.07,0,0,1-3,2.18,10.62,10.62,0,0,1-3.49,1.08,6.18,6.18,0,0,1-1.13.11h-1.12q-.5,0-.9,0c-.27,0-.55,0-.85,0h-4a10.72,10.72,0,0,1-4-.75,10.51,10.51,0,0,1-5.73-5.32,9.52,9.52,0,0,1-.9-4.15v-27a9.44,9.44,0,0,1,.9-4.14,10.29,10.29,0,0,1,2.4-3.23,11.13,11.13,0,0,1,3.4-2.1,10.5,10.5,0,0,1,3.89-.74h6.61a10.6,10.6,0,0,1,7.64,3.14,10.94,10.94,0,0,1,2.21,3.29,9.46,9.46,0,0,1,.82,3.84v6.51H647.7v-1.6c0-.55,0-1.08-.06-1.6v-.55a1.2,1.2,0,0,0-.13-.55q-.06-.72-.12-1.41a12.36,12.36,0,0,0-.19-1.36,2.85,2.85,0,0,0-1.06-2.26,4.34,4.34,0,0,0-2.55-.66l-.85,0q-.4,0-.84,0a3.4,3.4,0,0,0-2.09,1,3.06,3.06,0,0,0-.71,2.05v26.5a10.73,10.73,0,0,0,.09,1.33,4.15,4.15,0,0,0,.41,1.35,2.76,2.76,0,0,0,.87,1A2.37,2.37,0,0,0,641.9,210.73Z"/><path class="cls-2" d="M688.85,170.7h9.54V217h-9.54Z"/><path class="cls-2" d="M741.1,217.58a10.56,10.56,0,0,1-3.9-.75,11,11,0,0,1-3.4-2.07,10.24,10.24,0,0,1-2.4-3.2,9.58,9.58,0,0,1-.9-4.2v-27a9.44,9.44,0,0,1,.9-4.14,10.24,10.24,0,0,1,2.4-3.2,11.53,11.53,0,0,1,3.4-2.1,10.19,10.19,0,0,1,3.9-.77h6.67a10.55,10.55,0,0,1,3.9.74A10.44,10.44,0,0,1,755,173a11,11,0,0,1,2.37,3.23,9.12,9.12,0,0,1,.91,4.11v6.85h-9.54v-4.58a18.3,18.3,0,0,0-.22-3.18,3.05,3.05,0,0,0-.81-1.68,2.91,2.91,0,0,0-1.72-.67c-.74-.07-1.74-.11-3-.11a4.39,4.39,0,0,0-2.18.56c-.67.36-1,1.17-1,2.43v27.77a2.68,2.68,0,0,0,.41,1.57,3,3,0,0,0,1,.92,4.12,4.12,0,0,0,1.35.44,10.56,10.56,0,0,0,1.49.11,4.2,4.2,0,0,0,2.59-.69,4.41,4.41,0,0,0,1.37-1.74,7.42,7.42,0,0,0,.59-2.29c.08-.83.13-1.61.13-2.35v-2.26h9.54v6a9.62,9.62,0,0,1-.78,3.78,10.2,10.2,0,0,1-2.18,3.26,10.88,10.88,0,0,1-3.34,2.26,10.37,10.37,0,0,1-4.24.86Z"/><path class="cls-1" d="M108,86.8V56.21A33.21,33.21,0,0,1,141.23,23H155V44.33H141.23a11.9,11.9,0,0,0-11.9,11.88V86.82c0,19.92-12.21,34.94-22.07,43.84,9.86,8.87,22.07,23.89,22.07,43.84v30.58a11.92,11.92,0,0,0,11.9,11.9H155v21.3H141.23A33.22,33.22,0,0,1,108,205.08V174.47c0-15.23-13.13-27-19.85-32V118.76C95,113.74,108,102,108,86.8Z"/><path class="cls-3" d="M42.88,126.61H79.37v7.71H43a9,9,0,0,1-8.27,6c-4.92,0-8.91-4.34-8.91-9.68s4-9.68,8.91-9.68A8.93,8.93,0,0,1,42.88,126.61Z"/><path class="cls-3" d="M108.84,117V58.68a24.68,24.68,0,0,0-6.74-16.19,20.87,20.87,0,0,0-30.4-.24,24.78,24.78,0,0,0-6.93,15.92l0,.27a25.62,25.62,0,0,0,2,9.62A23,23,0,0,0,75,78.17,21,21,0,0,0,86,81.89c.43-4.91,4.24-8.73,8.88-8.73,4.92,0,8.91,4.33,8.91,9.69s-4,9.68-8.91,9.68a8.52,8.52,0,0,1-6.44-3c-.55,0-1.09.06-1.63.06v0a27.74,27.74,0,0,1-15.64-4.94A30.59,30.59,0,0,1,60.28,71.25a33.94,33.94,0,0,1-2.49-10.1A22,22,0,0,0,55.2,61,20.5,20.5,0,0,0,40.06,67.8a24.15,24.15,0,0,0-6.28,16.42,21.55,21.55,0,0,0,1.46,8.53A36.79,36.79,0,0,0,38.81,99H63.27a9,9,0,0,1,8.39-6.38c4.93,0,8.92,4.34,8.92,9.68s-4,9.68-8.92,9.68a8.86,8.86,0,0,1-7.94-5.27H37a21.46,21.46,0,0,0-15.78,7,24.71,24.71,0,0,0-6.44,16.91,25.06,25.06,0,0,0,5.73,16.1,21.46,21.46,0,0,0,14.23,7.71v0l.31.05h.29l.25,0h.21l.23,0H58.68a8.89,8.89,0,0,1,7.95-5.27c4.92,0,8.91,4.34,8.91,9.68s-4,9.68-8.91,9.68a9,9,0,0,1-8.4-6.38H38.9a25.88,25.88,0,0,0-.23,25,23.09,23.09,0,0,0,9.43,9.39,20.48,20.48,0,0,0,9.72,2.4,33.31,33.31,0,0,1,2.46-9.7,30.7,30.7,0,0,1,10.91-13.45,27.89,27.89,0,0,1,15.64-4.94v0c.67,0,1.36,0,2,.09a8.47,8.47,0,0,1,6-2.54c4.92,0,8.91,4.36,8.91,9.7s-4,9.68-8.91,9.68-8.69-4.09-8.91-9.22a21.38,21.38,0,0,0-11,3.72,23.13,23.13,0,0,0-8.23,10.12,25.91,25.91,0,0,0-2,10.13h0a24.8,24.8,0,0,0,6.74,16.2,20.88,20.88,0,0,0,30.62,0,24.11,24.11,0,0,0,4.76-7.26,25.2,25.2,0,0,0,2-8.94V142a3.42,3.42,0,0,1,3.25-3.56h.59a3.42,3.42,0,0,1,3.25,3.56v60.78a32.79,32.79,0,0,1-8.9,21.61,27.54,27.54,0,0,1-40.45,0A32.54,32.54,0,0,1,58,206.72a27.18,27.18,0,0,1-13-3.17,30.28,30.28,0,0,1-12.44-12.39,34.21,34.21,0,0,1-1.4-29.5,28.62,28.62,0,0,1-15.89-9.73,33,33,0,0,1-7.59-21.27,32.7,32.7,0,0,1,8.55-22.36,28.69,28.69,0,0,1,14.47-8.51,33.36,33.36,0,0,1-1.94-3.93,29.5,29.5,0,0,1-2.1-11.64A32.25,32.25,0,0,1,35,62.34,27.39,27.39,0,0,1,55.2,53.28a25.32,25.32,0,0,1,3,.18,32.3,32.3,0,0,1,8.64-16.81,27.5,27.5,0,0,1,40.17.29,32.81,32.81,0,0,1,8.9,21.6V117a18,18,0,0,1-4.68,12.26,15.35,15.35,0,0,1-11.3,5.09H93v-7.71H100a8.53,8.53,0,0,0,6.28-2.83A10.08,10.08,0,0,0,108.84,117Z"/><path class="cls-2" d="M245.92,86.8V56.21A33.21,33.21,0,0,0,212.73,23H199V44.33h13.77a11.91,11.91,0,0,1,11.9,11.88V86.82c0,19.92,12.21,34.94,22.07,43.84-9.86,8.87-22.07,23.89-22.07,43.84v30.58a11.92,11.92,0,0,1-11.9,11.9H199v21.3h13.77a33.22,33.22,0,0,0,33.19-33.2V174.47c0-15.23,13.13-27,19.85-32V118.76C259,113.74,245.92,102,245.92,86.8Z"/><path class="cls-4" d="M311.08,126.61H274.59v7.71h36.34a9,9,0,0,0,8.27,6c4.92,0,8.91-4.34,8.91-9.68s-4-9.68-8.91-9.68A8.93,8.93,0,0,0,311.08,126.61Z"/><path class="cls-4" d="M245.12,117V58.68a24.68,24.68,0,0,1,6.74-16.19,20.87,20.87,0,0,1,30.4-.24,24.83,24.83,0,0,1,6.93,15.92v.27a25.42,25.42,0,0,1-2,9.62A23,23,0,0,1,279,78.17a21,21,0,0,1-11.06,3.72c-.43-4.91-4.24-8.73-8.88-8.73-4.92,0-8.91,4.33-8.91,9.69s4,9.68,8.91,9.68a8.54,8.54,0,0,0,6.44-3c.55,0,1.09.06,1.63.06v0a27.79,27.79,0,0,0,15.64-4.94,30.57,30.57,0,0,0,10.9-13.43,33.64,33.64,0,0,0,2.5-10.1,22,22,0,0,1,2.59-.16A20.52,20.52,0,0,1,313.9,67.8a24.19,24.19,0,0,1,6.27,16.42,21.74,21.74,0,0,1-1.45,8.53A36.79,36.79,0,0,1,315.15,99H290.69a9,9,0,0,0-8.39-6.38c-4.94,0-8.93,4.34-8.93,9.68s4,9.68,8.93,9.68a8.87,8.87,0,0,0,7.94-5.27h26.69a21.49,21.49,0,0,1,15.79,7,24.75,24.75,0,0,1,6.43,16.91,25,25,0,0,1-5.73,16.1,21.42,21.42,0,0,1-14.22,7.71v0l-.32.05h-.28l-.26,0h-.21l-.22,0H295.28a8.91,8.91,0,0,0-7.95-5.27c-4.92,0-8.92,4.34-8.92,9.68s4,9.68,8.92,9.68a9,9,0,0,0,8.4-6.38h19.33a25.84,25.84,0,0,1,.22,25,23,23,0,0,1-9.42,9.39,20.54,20.54,0,0,1-9.72,2.4,33,33,0,0,0-2.47-9.7,30.68,30.68,0,0,0-10.9-13.45,27.94,27.94,0,0,0-15.64-4.94v0c-.67,0-1.36,0-2.05.09a8.49,8.49,0,0,0-6-2.54c-4.92,0-8.91,4.36-8.91,9.7s4,9.68,8.91,9.68,8.69-4.09,8.91-9.22a21.44,21.44,0,0,1,11,3.72,23,23,0,0,1,8.22,10.12,25.91,25.91,0,0,1,2,10.13h0a24.85,24.85,0,0,1-6.74,16.2,20.88,20.88,0,0,1-30.62,0,24.11,24.11,0,0,1-4.76-7.26,25.2,25.2,0,0,1-2-8.94V142a3.42,3.42,0,0,0-3.26-3.56h-.58A3.42,3.42,0,0,0,238,142v60.65l0,.13a32.73,32.73,0,0,0,8.89,21.61,27.55,27.55,0,0,0,40.46,0,32.61,32.61,0,0,0,8.55-17.66,27.23,27.23,0,0,0,13-3.17,30.28,30.28,0,0,0,12.44-12.39,34.15,34.15,0,0,0,1.39-29.5,28.58,28.58,0,0,0,15.89-9.73,33.52,33.52,0,0,0-1-43.63,28.62,28.62,0,0,0-14.46-8.51,31.82,31.82,0,0,0,1.93-3.93,29.31,29.31,0,0,0,2.11-11.64,32.25,32.25,0,0,0-8.36-21.88,27.39,27.39,0,0,0-20.17-9.06,25.32,25.32,0,0,0-3,.18,32.24,32.24,0,0,0-8.65-16.81,27.5,27.5,0,0,0-40.17.29A32.75,32.75,0,0,0,238,58.54l0,.14V117a18,18,0,0,0,4.68,12.26,15.39,15.39,0,0,0,11.3,5.09H261v-7.71H254a8.53,8.53,0,0,1-6.27-2.83A10,10,0,0,1,245.12,117Z"/><path class="cls-2" d="M406.71,174.62c2.16,0,3.25-.85,3.25-2.55v-2.86a2.3,2.3,0,0,0-.86-1.85,3.66,3.66,0,0,0-2.39-.7H393.57a3.5,3.5,0,0,0-2.31.7,2.33,2.33,0,0,0-.85,1.85V189.4h0v5.33h0v23.84a2.29,2.29,0,0,0,.85,1.84,3.45,3.45,0,0,0,2.31.71h13.14a3.61,3.61,0,0,0,2.39-.71,2.27,2.27,0,0,0,.86-1.84v-2.86c0-1.7-1.09-2.55-3.25-2.55h-7V174.62Z"/><path class="cls-2" d="M874,174.62c-2.16,0-3.25-.85-3.25-2.55v-2.86a2.3,2.3,0,0,1,.86-1.85,3.66,3.66,0,0,1,2.39-.7h13.14a3.5,3.5,0,0,1,2.31.7,2.33,2.33,0,0,1,.85,1.85V189.4h0v5.33h0v23.84a2.29,2.29,0,0,1-.85,1.84,3.45,3.45,0,0,1-2.31.71H874a3.61,3.61,0,0,1-2.39-.71,2.27,2.27,0,0,1-.86-1.84v-2.86c0-1.7,1.09-2.55,3.25-2.55h7V174.62Z"/></svg>