<?xml version="1.0" encoding="UTF-8" standalone="no"?>
<!-- Created with Inkscape (http://www.inkscape.org/) -->

<svg
   width="82.029762mm"
   height="11.316752mm"
   viewBox="0 0 82.029762 11.316752"
   version="1.1"
   id="svg5"
   inkscape:version="1.1 (c68e22c387, 2021-05-23)"
   sodipodi:docname="logoalt.svg"
   xmlns:inkscape="http://www.inkscape.org/namespaces/inkscape"
   xmlns:sodipodi="http://sodipodi.sourceforge.net/DTD/sodipodi-0.dtd"
   xmlns="http://www.w3.org/2000/svg"
   xmlns:svg="http://www.w3.org/2000/svg">
  <sodipodi:namedview
     id="namedview7"
     pagecolor="#ffffff"
     bordercolor="#666666"
     borderopacity="1.0"
     inkscape:pageshadow="2"
     inkscape:pageopacity="0.0"
     inkscape:pagecheckerboard="0"
     inkscape:document-units="mm"
     showgrid="false"
     inkscape:zoom="2.6832492"
     inkscape:cx="155.96763"
     inkscape:cy="139.38325"
     inkscape:window-width="3000"
     inkscape:window-height="1890"
     inkscape:window-x="-12"
     inkscape:window-y="-12"
     inkscape:window-maximized="1"
     inkscape:current-layer="layer1" />
  <defs
     id="defs2" />
  <g
     inkscape:label="Layer 1"
     inkscape:groupmode="layer"
     id="layer1"
     transform="translate(-30.274927,-96.857278)">
    <text
       xml:space="preserve"
       style="font-size:10.5833px;line-height:1.25;font-family:Aleo;-inkscape-font-specification:Aleo;fill:#2c7169;fill-opacity:1;stroke-width:0.264583"
       x="42.203186"
       y="107.28287"
       id="text2960"><tspan
         sodipodi:role="line"
         id="tspan2958"
         style="fill:#2c7169;fill-opacity:1;stroke-width:0.264583"
         x="42.203186"
         y="107.28287" /></text>
    <text
       xml:space="preserve"
       style="font-size:10.5833px;line-height:1.25;font-family:Aleo;-inkscape-font-specification:Aleo;fill:#2c7169;fill-opacity:1;stroke-width:0.264583"
       x="50.015491"
       y="105.69498"
       id="text30540"><tspan
         sodipodi:role="line"
         id="tspan30538"
         style="fill:#2c7169;fill-opacity:1;stroke-width:0.264583"
         x="50.015491"
         y="105.69498">gnostic</tspan></text>
    <text
       xml:space="preserve"
       style="font-size:10.5833px;line-height:1.25;font-family:Aleo;-inkscape-font-specification:Aleo;fill:#3b3d3f;fill-opacity:1;stroke-width:0.264583"
       x="84.767006"
       y="105.57792"
       id="text38292"><tspan
         sodipodi:role="line"
         id="tspan38290"
         style="fill:#3b3d3f;fill-opacity:1;stroke-width:0.264583"
         x="84.767006"
         y="105.57792">[logic]</tspan></text>
    <path
       class="cls-1"
       d="m 35.870624,100.26568 v -1.597121 a 1.8531512,1.7337428 0 0 1 1.851767,-1.730937 h 0.768206 v 1.111511 h -0.768206 a 0.66416315,0.62136753 0 0 0 -0.663932,0.619858 v 1.597119 c 0,1.03985 -0.681004,1.82396 -1.231436,2.28778 0.550432,0.46294 1.231436,1.24704 1.231436,2.28776 v 1.59712 a 0.66531655,0.62244667 0 0 0 0.663932,0.62375 h 0.768206 v 1.11151 h -0.768206 a 1.8533819,1.7339586 0 0 1 -1.851767,-1.73266 v -1.59713 c 0,-0.79532 -0.732679,-1.40784 -1.107323,-1.66964 v -1.24058 c 0.377412,-0.26179 1.107323,-0.8741 1.107323,-1.66834 z"
       id="path84"
       style="fill:#368980;fill-opacity:1;stroke-width:0.0223136" />
    <path
       class="cls-3"
       d="m 32.234913,102.34366 h 2.036091 v 0.40231 h -2.028247 c -0.07452,0.18389 -0.253761,0.31403 -0.461385,0.31403 -0.274523,0 -0.497141,-0.22641 -0.497141,-0.50526 0,-0.27884 0.222618,-0.50525 0.497141,-0.50525 0.201625,4.3e-4 0.374875,0.12108 0.453541,0.29417 z"
       id="path86"
       style="fill:#008080;fill-rule:evenodd;stroke-width:0.0223136" />
    <path
       class="cls-3"
       d="m 35.915378,101.84078 v -3.043156 a 1.3774637,1.2887064 0 0 0 -0.376028,-0.845181 1.1638426,1.08885 0 0 0 -1.69605,-0.01252 1.3841538,1.2949653 0 0 0 -0.386871,0.830935 v 0.01425 a 1.4210645,1.3294978 0 0 0 0.110502,0.502014 1.2833413,1.2006487 0 0 0 0.458616,0.527915 1.173301,1.0976989 0 0 0 0.617102,0.194243 c 0.02422,-0.256186 0.23692,-0.455826 0.495526,-0.455826 0.274755,0 0.497373,0.226402 0.497373,0.505896 0,0.2795 -0.22331,0.50676 -0.498064,0.50676 a 0.47661028,0.44589974 0 0 1 -0.359189,-0.15582 c -0.03091,0.002 -0.0609,0.003 -0.09112,0.003 v 0 a 1.5484067,1.4486345 0 0 1 -0.872478,-0.25727 1.707123,1.5971239 0 0 1 -0.608566,-0.701002 1.8861402,1.7646061 0 0 1 -0.138415,-0.527267 1.1885267,1.1119436 0 0 0 -0.144876,-0.0084 1.1437725,1.0700731 0 0 0 -0.844795,0.355468 1.3497806,1.262807 0 0 0 -0.34996,0.856831 c 0,0.18972 0.02861,0.32504 0.0812,0.44569 0.04614,0.10424 0.113962,0.20762 0.199318,0.32827 h 1.364545 c 0.06921,-0.19424 0.253761,-0.33302 0.468074,-0.33302 0.275448,0 0.498066,0.2264 0.498066,0.50525 0,0.27885 -0.222618,0.50525 -0.498066,0.50525 -0.192627,0 -0.360803,-0.11201 -0.442928,-0.27496 h -1.489812 v 0 a 1.1995999,1.1223032 0 0 0 -0.880782,0.36582 1.3809241,1.2919438 0 0 0 -0.358958,0.88274 1.3954577,1.305541 0 0 0 0.319739,0.83892 1.1945247,1.117555 0 0 0 0.79289,0.40252 v 0 l 0.01754,0.002 h 0.01592 0.0143 v 0 h 0.01176 0.01246 0.01269 0.04176 v 0 h 1.208136 c 0.08282,-0.16295 0.250301,-0.27497 0.443621,-0.27497 0.274755,0 0.497373,0.22641 0.497373,0.50526 0,0.27885 -0.222618,0.50525 -0.497373,0.50525 -0.215928,0 -0.399328,-0.13878 -0.468767,-0.3328 h -1.077564 a 1.4411348,1.3482748 0 0 0 -0.01269,1.30532 1.2888779,1.2058286 0 0 0 0.525748,0.49036 1.1534615,1.0791378 0 0 0 0.542588,0.1254 1.8455383,1.7266204 0 0 1 0.137262,-0.50677 1.7145051,1.6040304 0 0 1 0.608566,-0.70187 1.5537126,1.4535986 0 0 1 0.873401,-0.25749 v 0 c 0.0376,0 0.07613,0.001 0.115346,0.004 a 0.47314989,0.44266232 0 0 1 0.335657,-0.13229 c 0.274755,0 0.497373,0.22726 0.497373,0.50611 0,0.27885 -0.222618,0.50504 -0.497373,0.50504 -0.266911,0 -0.484453,-0.21302 -0.497141,-0.48086 a 1.1931406,1.1162601 0 0 0 -0.615487,0.19424 1.2870323,1.2041019 0 0 0 -0.458617,0.52791 1.4464407,1.3532388 0 0 0 -0.110501,0.52878 v 0 a 1.3871528,1.2977712 0 0 0 0.375798,0.84583 1.1659188,1.0907924 0 0 0 1.708737,0 1.3361697,1.2500732 0 0 0 0.265527,-0.37922 1.4044547,1.3139582 0 0 0 0.110502,-0.46661 v -3.16511 c 0,-0.10188 0.0812,-0.18561 0.181554,-0.18561 h 0.03276 c 0.100351,0 0.181555,0.0837 0.181555,0.18561 v 3.16597 0.007 a 1.827775,1.7100017 0 0 1 -0.49645,1.12791 c -0.29321,0.28662 -0.692077,0.46209 -1.128547,0.46209 -0.43647,0 -0.835567,-0.17547 -1.128547,-0.46209 a 1.8167018,1.699642 0 0 1 -0.477302,-0.92179 1.5193395,1.4214403 0 0 1 -0.725758,-0.16533 1.6865913,1.5779152 0 0 1 -0.694153,-0.64748 1.9075946,1.7846781 0 0 1 -0.07774,-1.53971 1.5947759,1.492016 0 0 1 -0.886551,-0.50764 1.8425394,1.7238147 0 0 1 -0.423781,-1.11064 c 0,-0.45972 0.182708,-0.87022 0.477302,-1.16697 a 1.5963907,1.4935266 0 0 1 0.807422,-0.44418 1.8256988,1.7080593 0 0 1 -0.111654,-0.20482 c -0.07613,-0.17318 -0.117191,-0.35966 -0.117191,-0.60721 a 1.7993999,1.6834549 0 0 1 0.466459,-1.141946 c 0.288827,-0.292014 0.685618,-0.473309 1.125086,-0.473309 a 1.4180655,1.326692 0 0 1 0.168175,0.0095 1.7980158,1.68216 0 0 1 0.482378,-0.877123 c 0.291364,-0.277986 0.68308,-0.447196 1.112628,-0.447196 0.436932,0 0.835338,0.175468 1.128547,0.462088 a 1.8296206,1.7117283 0 0 1 0.49645,1.127915 v 0.0071 3.043161 a 1.0060491,0.94122394 0 0 1 -0.261375,0.63949 0.85748324,0.80223107 0 0 1 -0.629558,0.26526 h -0.387563 v -0.4023 h 0.387563 a 0.47661028,0.44589974 0 0 0 0.34996,-0.1472 0.56150505,0.52532428 0 0 0 0.145797,-0.35568 z"
       id="path88"
       style="fill:#368980;fill-opacity:1;fill-rule:evenodd;stroke-width:0.0223136" />
    <path
       class="cls-2"
       d="m 43.563751,100.26568 v -1.597121 a 1.8531512,1.7337428 0 0 0 -1.851767,-1.730937 h -0.768206 v 1.111511 h 0.768206 a 0.66416315,0.62136753 0 0 1 0.663932,0.619858 v 1.597119 c 0,1.03985 0.681004,1.82396 1.231435,2.28778 -0.550431,0.46294 -1.231435,1.24704 -1.231435,2.28776 v 1.59712 a 0.66531655,0.62244667 0 0 1 -0.663932,0.62375 h -0.768206 v 1.11151 h 0.768206 a 1.8533819,1.7339586 0 0 0 1.851767,-1.73266 v -1.59713 c 0,-0.79532 0.732679,-1.40784 1.107322,-1.66964 v -1.24058 c -0.377412,-0.26179 -1.107322,-0.8741 -1.107322,-1.66834 z"
       id="path90"
       style="fill:#3b3d3f;stroke-width:0.0223136" />
    <path
       class="cls-4"
       d="m 47.19946,102.34366 h -2.036089 v 0.40231 h 2.028246 c 0.07452,0.18389 0.253762,0.31403 0.461384,0.31403 0.274525,0 0.497143,-0.22641 0.497143,-0.50526 0,-0.27884 -0.222618,-0.50525 -0.497143,-0.50525 -0.201624,4.3e-4 -0.374874,0.12108 -0.453541,0.29417 z"
       id="path92"
       style="fill:#3b3d3f;fill-rule:evenodd;stroke-width:0.0223136" />
    <path
       class="cls-4"
       d="m 43.518996,101.84078 v -3.043156 a 1.3774637,1.2887064 0 0 1 0.376028,-0.845181 1.1638426,1.08885 0 0 1 1.69605,-0.01252 1.3841538,1.2949653 0 0 1 0.386872,0.830935 v 0.01425 a 1.4210645,1.3294978 0 0 1 -0.110502,0.502014 1.2833413,1.2006487 0 0 1 -0.458617,0.527915 1.173301,1.0976989 0 0 1 -0.617102,0.194243 c -0.02307,-0.256186 -0.236921,-0.455826 -0.495527,-0.455826 -0.274754,0 -0.497372,0.226402 -0.497372,0.505896 0,0.2795 0.22331,0.50676 0.498065,0.50676 a 0.47661028,0.44589974 0 0 0 0.359187,-0.15582 c 0.03092,0.002 0.0609,0.003 0.09112,0.003 v 0 a 1.5484067,1.4486345 0 0 0 0.872479,-0.25727 1.707123,1.5971239 0 0 0 0.608566,-0.701004 1.8861402,1.7646061 0 0 0 0.138416,-0.527267 1.1885267,1.1119436 0 0 1 0.144875,-0.0084 1.1437725,1.0700731 0 0 1 0.844795,0.355468 1.3497806,1.262807 0 0 1 0.34996,0.856833 c 0,0.18971 -0.02861,0.32504 -0.0812,0.44569 -0.04614,0.10424 -0.113962,0.20762 -0.199317,0.32827 h -1.364546 c -0.06921,-0.19424 -0.253762,-0.33302 -0.468074,-0.33302 -0.275447,0 -0.498065,0.2264 -0.498065,0.50525 0,0.27885 0.222618,0.50525 0.498065,0.50525 0.192628,0 0.360802,-0.11201 0.44293,-0.27496 h 1.489348 v 0 a 1.1995999,1.1223032 0 0 1 0.880783,0.36582 1.3809241,1.2919438 0 0 1 0.358957,0.88274 1.3954577,1.305541 0 0 1 -0.319739,0.84043 1.1945247,1.117555 0 0 1 -0.792429,0.40101 v 0 l -0.01753,0.002 h -0.01592 -0.0143 v 0 h -0.01176 -0.01246 -0.01269 -0.04176 v 0 h -1.208826 c -0.08282,-0.16295 -0.250301,-0.27497 -0.443621,-0.27497 -0.274755,0 -0.497374,0.22641 -0.497374,0.50526 0,0.27885 0.222619,0.50525 0.497374,0.50525 0.215928,0 0.399327,-0.13878 0.468766,-0.3328 h 1.079409 a 1.4411348,1.3482748 0 0 1 0.01154,1.30532 1.2888779,1.2058286 0 0 1 -0.525747,0.49036 1.1534615,1.0791378 0 0 1 -0.542589,0.1254 1.8455383,1.7266204 0 0 0 -0.138415,-0.50677 1.7145051,1.6040304 0 0 0 -0.608566,-0.70187 1.5537126,1.4535986 0 0 0 -0.872248,-0.25749 v 0 c -0.0376,0 -0.07613,0.001 -0.115347,0.004 a 0.47314989,0.44266232 0 0 0 -0.335656,-0.13229 c -0.274755,0 -0.497373,0.22726 -0.497373,0.50611 0,0.27885 0.222618,0.50504 0.497373,0.50504 0.26691,0 0.484453,-0.21302 0.497141,-0.48086 a 1.1931406,1.1162601 0 0 1 0.615487,0.19424 1.2870323,1.2041019 0 0 1 0.458617,0.52791 1.4464407,1.3532388 0 0 1 0.110501,0.52878 v 0 a 1.3871528,1.2977712 0 0 1 -0.375798,0.84583 1.1659188,1.0907924 0 0 1 -1.708737,0 1.3361697,1.2500732 0 0 1 -0.265528,-0.37922 1.4044547,1.3139582 0 0 1 -0.110501,-0.46661 v -3.16511 c 0,-0.10188 -0.0812,-0.18561 -0.181555,-0.18561 h -0.03276 c -0.100351,0 -0.181554,0.0837 -0.181554,0.18561 v 3.16597 0.007 a 1.827775,1.7100017 0 0 0 0.49645,1.12791 c 0.29321,0.28662 0.692077,0.46209 1.128547,0.46209 0.436469,0 0.835567,-0.17547 1.128546,-0.46209 a 1.8167018,1.699642 0 0 0 0.477302,-0.92179 1.5193395,1.4214403 0 0 0 0.725759,-0.16533 1.6865913,1.5779152 0 0 0 0.694152,-0.64748 1.9075946,1.7846781 0 0 0 0.07774,-1.53971 1.5947759,1.492016 0 0 0 0.886551,-0.50764 1.8425394,1.7238147 0 0 0 0.423781,-1.11064 c 0,-0.45972 -0.182709,-0.87022 -0.477303,-1.16697 a 1.5963907,1.4935266 0 0 0 -0.807422,-0.44418 1.8256988,1.7080593 0 0 0 0.107965,-0.20525 c 0.07613,-0.17374 0.11719,-0.36022 0.11719,-0.60777 a 1.7993999,1.6834549 0 0 0 -0.466464,-1.142418 c -0.285136,-0.291583 -0.681928,-0.472878 -1.121396,-0.472878 a 1.4180655,1.326692 0 0 0 -0.168174,0.0095 1.7980158,1.68216 0 0 0 -0.482378,-0.877123 c -0.291365,-0.277986 -0.68308,-0.447195 -1.112629,-0.447195 -0.436931,0 -0.835337,0.175468 -1.128547,0.462087 a 1.8296206,1.7117283 0 0 0 -0.49645,1.127915 v 0.0071 3.043162 a 1.0060491,0.94122394 0 0 0 0.261375,0.6395 0.85748324,0.80223107 0 0 0 0.629559,0.26526 h 0.387563 v -0.40231 h -0.387563 a 0.47661028,0.44589974 0 0 1 -0.34996,-0.14719 0.56150505,0.52532428 0 0 1 -0.145798,-0.35568 z"
       id="path94"
       style="fill:#3b3d3f;fill-rule:evenodd;stroke-width:0.0223136" />
  </g>
</svg>
