<svg id="Layer_1" data-name="Layer 1" xmlns="http://www.w3.org/2000/svg" viewBox="0 0 900 900"><defs><style>.cls-1,.cls-3{fill:#d38a59;}.cls-2,.cls-4{fill:#e6e7e8;}.cls-3,.cls-4{fill-rule:evenodd;}</style></defs><path class="cls-1" d="M90.79,762.75H87.61a25.18,25.18,0,0,0-3.19.2H78.53A39.62,39.62,0,0,1,63.69,760,42.3,42.3,0,0,1,41.3,739.27a34.88,34.88,0,0,1-3.53-15.55V622.3A34.25,34.25,0,0,1,41,608a42.16,42.16,0,0,1,8.6-12.41,42.68,42.68,0,0,1,12.84-8.77,39,39,0,0,1,16.14-3.34h28.28a35.77,35.77,0,0,1,15.2,3.34,45.32,45.32,0,0,1,12.72,8.77,42,42,0,0,1,8.72,12.21,31.89,31.89,0,0,1,3.18,13.66V648.8H103.51V636.07c0-1.8,0-3.58-.12-5.32a39.64,39.64,0,0,1,.12-5.32,15.31,15.31,0,0,0-1.06-8.14,6.34,6.34,0,0,0-4.36-3.75,14.85,14.85,0,0,0-2.59-.21H89.14a14.72,14.72,0,0,0-5.66,2,6.15,6.15,0,0,0-3.06,4.48V723.72c.47,4.31,1.68,6.92,3.65,7.83s5.22,1.36,9.78,1.36h.94a11,11,0,0,0,6.25-1.67,5.27,5.27,0,0,0,2.47-4.6V692h-13V663.83l56.08.21v60.73a32.27,32.27,0,0,1-3.53,14.71,40.6,40.6,0,0,1-9.43,12.2A45.12,45.12,0,0,1,120,759.93a44.64,44.64,0,0,1-16.26,3c-1.58,0-3.11,0-4.6-.1s-2.94-.1-4.36-.1Z"/><path class="cls-1" d="M288,585.78V760.66H244.42L210,666.33v94.33H167.84V585.78H212.6l33,88.27V585.78Z"/><path class="cls-1" d="M347.39,763a40.55,40.55,0,0,1-15-2.92,44,44,0,0,1-13.19-8,39.55,39.55,0,0,1-9.31-12.31,34.91,34.91,0,0,1-3.53-15.55V622.3a34.73,34.73,0,0,1,3.41-15.23,40.56,40.56,0,0,1,9.07-12.32,44.05,44.05,0,0,1,12.85-8.24,37,37,0,0,1,14.49-3h26.63a38.73,38.73,0,0,1,14.72,2.93,45.42,45.42,0,0,1,13.08,8.13A39.92,39.92,0,0,1,410.06,607a34.3,34.3,0,0,1,3.54,15.34l.23,101.84a34.78,34.78,0,0,1-3.53,15.55A38.71,38.71,0,0,1,400.87,752a45.76,45.76,0,0,1-13.19,8A39.62,39.62,0,0,1,372.84,763Zm10.13-149.62a10,10,0,0,0-6.83,2.71,8.06,8.06,0,0,0-2.6,7.3,23.3,23.3,0,0,1,.12,4.07c-.08,1.33-.12,2.61-.12,3.86v81a29.93,29.93,0,0,0-.11,4.69q.11,2.19.11,5.95c-.31,3.2.43,5.67,2.24,7.41a8.27,8.27,0,0,0,6.48,2.39h.47c2.2,0,4.16-.06,5.89-.2a13.23,13.23,0,0,0,4.6-1.15,6.56,6.56,0,0,0,3.06-2.92,13.82,13.82,0,0,0,1.3-5.53c0-2.64,0-5.22-.12-7.72s0-5,.12-7.52V631.27c0-1.25,0-2.53-.12-3.86a23.3,23.3,0,0,1,.12-4.07,8.55,8.55,0,0,0-2.71-7.09,10.57,10.57,0,0,0-6.72-2.92Z"/><path class="cls-1" d="M471.33,763.17a45.59,45.59,0,0,1-16.85-3,40,40,0,0,1-13.2-8.35,38.18,38.18,0,0,1-8.6-12.31,36.82,36.82,0,0,1-3.06-14.92V699.93h41.71v17.64a24.23,24.23,0,0,0,1.06,7.4,11.31,11.31,0,0,0,3.77,5.53c1.8,1.47,4.36,2.19,7.65,2.19a15.67,15.67,0,0,0,9-2.81q3.53-2.61,3.53-8.24a29.7,29.7,0,0,0-5.06-17.33,68,68,0,0,0-12.49-13.46q-7.42-6.15-16.26-12.31a111.91,111.91,0,0,1-16.26-13.77,69.68,69.68,0,0,1-12.49-17.85q-5.06-10.21-5.06-24.62a37.57,37.57,0,0,1,12.13-27.65,43.92,43.92,0,0,1,13.55-8.45,45,45,0,0,1,17-3.14,31.65,31.65,0,0,0,3.77.22h3.77q3.76,0,7.42-.11c2.43-.07,4.91-.11,7.42-.11a34.71,34.71,0,0,1,14.14,3A40.94,40.94,0,0,1,520,594.33a42.74,42.74,0,0,1,8.6,12.21,34.7,34.7,0,0,1,3.29,14.92v25.88H492.06V632.53q0-3.13-.12-6.37a19.24,19.24,0,0,0-1.17-6,11.18,11.18,0,0,0-3.3-4.7,9.48,9.48,0,0,0-6.25-1.87c.16,0,0,0-.59.1s-.74.1-.59.1a8.89,8.89,0,0,0-6.36,2.4,9.22,9.22,0,0,0-3.06,7.41,31,31,0,0,0,5.07,17.74,69.32,69.32,0,0,0,12.48,13.88q7.43,6.36,16.26,12.62a110.36,110.36,0,0,1,16.26,14.09,73.54,73.54,0,0,1,12.49,18q5.07,10.23,5.06,24.84a33.43,33.43,0,0,1-3.53,15.33,40.49,40.49,0,0,1-9.42,12.21,43.26,43.26,0,0,1-13.2,8,40.91,40.91,0,0,1-14.84,2.82Z"/><path class="cls-1" d="M545.08,613.33V585.78h119.7v27.55H625.9V760.66H584V613.33Z"/><path class="cls-1" d="M684.33,585.57h42.18V760.66H684.33Z"/><path class="cls-1" d="M795.55,583.28c2.35.14,4.71.2,7.06.2h17.44a43.55,43.55,0,0,1,30.16,11.9,39.76,39.76,0,0,1,8.84,12.52,35.84,35.84,0,0,1,3.18,14.82v27.34H819.82V634.61a113.24,113.24,0,0,0-.12-11.79,11.91,11.91,0,0,0-2-6.36,7.08,7.08,0,0,0-4.83-2.51,69.55,69.55,0,0,0-8.61-.41,15,15,0,0,0-6.71,1.25q-2.47,1.25-2.48,6.05V725.39q0,5.22,4,6.26a33.34,33.34,0,0,0,8.48,1A10.56,10.56,0,0,0,814,730.4a13,13,0,0,0,3.77-5.63,30.15,30.15,0,0,0,1.65-8.14q.36-4.59.36-9.81v-6.47h42.41V723.1A36.54,36.54,0,0,1,859.05,738a40.64,40.64,0,0,1-8.84,12.73,44.22,44.22,0,0,1-13.31,8.87A41.24,41.24,0,0,1,820.29,763a16.54,16.54,0,0,0-2.83-.2H803.32c-1.41,0-2.82.06-4.24.2h-3.53a42.21,42.21,0,0,1-16.62-3.23,43.3,43.3,0,0,1-13.31-8.66,41.42,41.42,0,0,1-9-12.52,34.74,34.74,0,0,1-3.3-14.82V622.51a34.74,34.74,0,0,1,3.3-14.82,41.42,41.42,0,0,1,9-12.52,43.29,43.29,0,0,1,13.43-8.66A42.47,42.47,0,0,1,795.55,583.28Z"/><path class="cls-2" d="M257,881V805.17h15.61v65.51H290.8V881Z"/><path class="cls-2" d="M383,865.17a15.85,15.85,0,0,1-1.43,6.77,16.83,16.83,0,0,1-3.83,5.29,17.23,17.23,0,0,1-5.51,3.43,17.43,17.43,0,0,1-6.48,1.22H354.87a17.43,17.43,0,0,1-6.48-1.22,17.78,17.78,0,0,1-5.51-3.39,15.92,15.92,0,0,1-5.25-12.1V821a15.31,15.31,0,0,1,1.48-6.77,17.16,17.16,0,0,1,9.38-8.72,17.47,17.47,0,0,1,6.48-1.22h10.81a16.83,16.83,0,0,1,6.38,1.26,18.7,18.7,0,0,1,5.51,3.44,16.76,16.76,0,0,1,3.88,5.24A15.45,15.45,0,0,1,383,821ZM353,823.6a13.19,13.19,0,0,0-.1,1.68v35.64c0,.84,0,1.64.05,2.39s.12,1.68.26,2.76c.06,1.87.71,3.1,1.94,3.71a10.08,10.08,0,0,0,4.48.9c1,0,2,0,2.86-.09a7,7,0,0,0,2.35-.54,4.56,4.56,0,0,0,1.73-1.36,5.14,5.14,0,0,0,.92-2.62q.11-1.71.15-3.39c0-1.11.05-2.24.05-3.39V823.6c0-.54,0-1.09-.05-1.67s-.05-1.13-.05-1.67a4.56,4.56,0,0,0-1.53-3.34,5.7,5.7,0,0,0-3.37-1.45q0-.09-1-.09h-1.12a13.38,13.38,0,0,0-4.28.54,4.43,4.43,0,0,0-2.25,1.58,5.64,5.64,0,0,0-.87,2.58C353.08,821.1,353,822.28,353,823.6Z"/><path class="cls-2" d="M452.5,870.68a14.84,14.84,0,0,0,1.63.09h2.55a3,3,0,0,0,1-.18,5.24,5.24,0,0,0,3.11-1.45A4.48,4.48,0,0,0,462,865.8V850.53h-7.86V840.05H477.8v25.12a15.26,15.26,0,0,1-1.28,6.23,17.19,17.19,0,0,1-3.36,5.06,17.92,17.92,0,0,1-4.85,3.57,16.89,16.89,0,0,1-5.71,1.76,9.49,9.49,0,0,1-1.84.18h-1.83c-.55,0-1,0-1.48,0s-.9,0-1.38,0h-6.53a17.75,17.75,0,0,1-12-4.65,17.27,17.27,0,0,1-3.87-5.29,15.31,15.31,0,0,1-1.48-6.77V821a15.31,15.31,0,0,1,1.48-6.77,16.81,16.81,0,0,1,3.93-5.29,17.86,17.86,0,0,1,5.55-3.43,17.22,17.22,0,0,1,6.38-1.22h10.81a17.36,17.36,0,0,1,12.5,5.15,17.83,17.83,0,0,1,3.62,5.37,15.4,15.4,0,0,1,1.33,6.28v10.66H462v-2.62c0-.9,0-1.77-.1-2.62v-.9a2.11,2.11,0,0,0-.21-.9c-.07-.79-.14-1.55-.2-2.31s-.17-1.49-.31-2.21a4.7,4.7,0,0,0-1.73-3.7,7.09,7.09,0,0,0-4.19-1.09c-.47,0-.93,0-1.37,0s-.91.05-1.38.05a5.45,5.45,0,0,0-3.42,1.72,4.93,4.93,0,0,0-1.17,3.34V863.9a17.22,17.22,0,0,0,.15,2.17,7,7,0,0,0,.66,2.21,4.61,4.61,0,0,0,1.43,1.72A3.87,3.87,0,0,0,452.5,870.68Z"/><path class="cls-2" d="M529.32,805.17h15.61V881H529.32Z"/><path class="cls-2" d="M614.81,881.88a17.22,17.22,0,0,1-6.38-1.22,18.49,18.49,0,0,1-5.56-3.39A16.28,16.28,0,0,1,599,872a15.52,15.52,0,0,1-1.48-6.86V821a15.31,15.31,0,0,1,1.48-6.77,16.28,16.28,0,0,1,3.92-5.24,19.49,19.49,0,0,1,5.56-3.44,16.87,16.87,0,0,1,6.38-1.26h10.91a17.18,17.18,0,0,1,6.38,1.22,16.85,16.85,0,0,1,5.51,3.48,18.18,18.18,0,0,1,3.88,5.28A15.21,15.21,0,0,1,643,821v11.21H627.36v-7.5a28.91,28.91,0,0,0-.36-5.2,5,5,0,0,0-1.32-2.75,4.66,4.66,0,0,0-2.81-1.09c-1.22-.12-2.86-.18-4.9-.18a7.28,7.28,0,0,0-3.57.9c-1.09.61-1.63,1.93-1.63,4V865.8a4.43,4.43,0,0,0,.66,2.57,5,5,0,0,0,1.63,1.5,6.4,6.4,0,0,0,2.2.72,16.83,16.83,0,0,0,2.45.18,6.89,6.89,0,0,0,4.23-1.13,7,7,0,0,0,2.24-2.85,11.9,11.9,0,0,0,1-3.75,37.3,37.3,0,0,0,.21-3.84v-3.7H643v9.76a15.82,15.82,0,0,1-1.28,6.19,16.64,16.64,0,0,1-3.57,5.33,17.79,17.79,0,0,1-5.46,3.7,17,17,0,0,1-6.94,1.4Z"/><path class="cls-1" d="M284.56,165.32V91.92a79.69,79.69,0,0,1,79.65-79.59h33V63.42h-33a28.56,28.56,0,0,0-28.56,28.5v73.46c0,47.8-29.29,83.85-53,105.2,23.67,21.29,53,57.33,53,105.19v73.41a28.61,28.61,0,0,0,28.56,28.55h33v51.1h-33a79.71,79.71,0,0,1-79.65-79.65V375.72c0-36.56-31.51-64.72-47.63-76.76V242C253.17,230,284.56,201.83,284.56,165.32Z"/><path class="cls-3" d="M128.2,260.85h87.56v18.51h-87.2c-3.21,8.46-10.88,14.44-19.84,14.44-11.82,0-21.39-10.41-21.39-23.23s9.57-23.22,21.39-23.22C117.36,247.35,124.81,252.89,128.2,260.85Z"/><path class="cls-3" d="M286.48,237.73V97.85A59.26,59.26,0,0,0,270.32,59a50.09,50.09,0,0,0-73-.57,59.54,59.54,0,0,0-16.63,38.2l0,.65a61.23,61.23,0,0,0,4.76,23.08,55.1,55.1,0,0,0,19.73,24.27,50.46,50.46,0,0,0,26.54,8.93c1-11.78,10.19-21,21.31-21,11.81,0,21.39,10.41,21.39,23.26s-9.58,23.23-21.39,23.23a20.5,20.5,0,0,1-15.45-7.17c-1.33.11-2.62.15-3.92.15v0a66.58,66.58,0,0,1-37.52-11.84A73.47,73.47,0,0,1,170,128a81.19,81.19,0,0,1-6-24.23,50.81,50.81,0,0,0-6.23-.4,49.18,49.18,0,0,0-36.33,16.35,58,58,0,0,0-15.06,39.39c0,8.71,1.23,14.94,3.5,20.49,1.94,4.79,4.89,9.54,8.57,15.09h58.69c3-8.93,10.87-15.31,20.13-15.31,11.84,0,21.42,10.41,21.42,23.23s-9.58,23.22-21.42,23.22c-8.28,0-15.52-5.15-19-12.64H114.15v0A51.61,51.61,0,0,0,76.27,230a59.38,59.38,0,0,0-15.44,40.58,60.05,60.05,0,0,0,13.75,38.64,51.42,51.42,0,0,0,34.14,18.51v0l.75.11.69,0,.61,0v0h.5l.54,0,.54,0h1.8v0h52c3.57-7.49,10.77-12.64,19.08-12.64,11.81,0,21.39,10.41,21.39,23.23s-9.58,23.22-21.39,23.22c-9.29,0-17.17-6.37-20.16-15.3H118.65A61.35,61.35,0,0,0,110.73,374a62,62,0,0,0,7.38,32.34,55.51,55.51,0,0,0,22.62,22.54,49.55,49.55,0,0,0,23.33,5.76,79.83,79.83,0,0,1,5.9-23.3,73.73,73.73,0,0,1,26.18-32.26,66.82,66.82,0,0,1,37.52-11.85v0c1.62,0,3.28.07,4.93.21A20.35,20.35,0,0,1,253,361.42c11.81,0,21.39,10.44,21.39,23.26S264.84,407.9,253,407.9c-11.48,0-20.85-9.79-21.39-22.1a51.27,51.27,0,0,0-26.46,8.92A55.38,55.38,0,0,0,185.45,419a62.17,62.17,0,0,0-4.76,24.31h0a59.62,59.62,0,0,0,16.16,38.89,50.16,50.16,0,0,0,73.5,0,57.72,57.72,0,0,0,11.41-17.43,60.46,60.46,0,0,0,4.75-21.46V297.76c0-4.68,3.5-8.54,7.82-8.54h1.4c4.32,0,7.81,3.86,7.81,8.54V443.3l0,.32a78.64,78.64,0,0,1-21.35,51.85c-12.61,13.18-29.75,21.25-48.54,21.25s-35.94-8.07-48.54-21.25a78.14,78.14,0,0,1-20.52-42.38,65.1,65.1,0,0,1-31.22-7.6,72.56,72.56,0,0,1-29.85-29.74A82,82,0,0,1,100.11,345,68.6,68.6,0,0,1,62,321.63a79.28,79.28,0,0,1-18.22-51.06c0-21.13,7.85-40,20.52-53.65A68.65,68.65,0,0,1,99,196.51a81,81,0,0,1-4.64-9.44c-3.28-8-5-16.56-5-27.94a77.4,77.4,0,0,1,20-52.5c12.43-13.43,29.49-21.75,48.4-21.75a60.47,60.47,0,0,1,7.23.44A77.36,77.36,0,0,1,185.73,45c12.54-12.79,29.39-20.56,47.86-20.56,18.79,0,35.93,8.06,48.54,21.24a78.72,78.72,0,0,1,21.35,51.85l0,.33V237.73a43.24,43.24,0,0,1-11.23,29.42,36.88,36.88,0,0,1-27.11,12.21H248.5V260.85h16.67a20.5,20.5,0,0,0,15.05-6.77A24.18,24.18,0,0,0,286.48,237.73Z"/><path class="cls-2" d="M615.44,165.32V91.92a79.69,79.69,0,0,0-79.65-79.59h-33V63.42h33a28.56,28.56,0,0,1,28.56,28.5v73.46c0,47.8,29.29,83.85,53,105.2-23.67,21.29-53,57.33-53,105.19v73.41a28.61,28.61,0,0,1-28.56,28.55h-33v51.1h33a79.71,79.71,0,0,0,79.65-79.65V375.72c0-36.56,31.51-64.72,47.63-76.76V242C646.83,230,615.44,201.83,615.44,165.32Z"/><path class="cls-4" d="M771.8,260.85H684.24v18.51h87.2c3.21,8.46,10.88,14.44,19.84,14.44,11.82,0,21.39-10.41,21.39-23.23s-9.57-23.22-21.39-23.22C782.64,247.35,775.19,252.89,771.8,260.85Z"/><path class="cls-4" d="M613.52,237.73V97.85A59.26,59.26,0,0,1,629.68,59a50.09,50.09,0,0,1,73-.57,59.54,59.54,0,0,1,16.63,38.2l0,.65a61.23,61.23,0,0,1-4.76,23.08,55.1,55.1,0,0,1-19.73,24.27,50.46,50.46,0,0,1-26.54,8.93c-1-11.78-10.19-21-21.31-21-11.81,0-21.39,10.41-21.39,23.26s9.58,23.23,21.39,23.23a20.5,20.5,0,0,0,15.45-7.17c1.33.11,2.62.15,3.92.15v0a66.58,66.58,0,0,0,37.52-11.84A73.47,73.47,0,0,0,730,128a81.19,81.19,0,0,0,6-24.23,50.81,50.81,0,0,1,6.23-.4,49.18,49.18,0,0,1,36.33,16.35,58,58,0,0,1,15.06,39.39c0,8.71-1.23,14.94-3.5,20.49-1.94,4.79-4.89,9.54-8.57,15.09H722.87c-3-8.93-10.87-15.31-20.13-15.31-11.84,0-21.42,10.41-21.42,23.23s9.58,23.22,21.42,23.22c8.28,0,15.52-5.15,19-12.64h64.06v0A51.61,51.61,0,0,1,823.73,230a59.38,59.38,0,0,1,15.44,40.58,60.05,60.05,0,0,1-13.75,38.64,51.42,51.42,0,0,1-34.14,18.51v0l-.75.11-.69,0-.61,0v0h-.5l-.54,0-.54,0h-1.8v0h-52c-3.57-7.49-10.77-12.64-19.08-12.64-11.81,0-21.39,10.41-21.39,23.23s9.58,23.22,21.39,23.22c9.29,0,17.17-6.37,20.16-15.3h46.38A61.35,61.35,0,0,1,789.27,374a62,62,0,0,1-7.38,32.34,55.51,55.51,0,0,1-22.62,22.54,49.55,49.55,0,0,1-23.33,5.76,79.83,79.83,0,0,0-5.9-23.3,73.73,73.73,0,0,0-26.18-32.26,66.82,66.82,0,0,0-37.52-11.85v0c-1.62,0-3.28.07-4.93.21A20.35,20.35,0,0,0,647,361.42c-11.81,0-21.39,10.44-21.39,23.26S635.16,407.9,647,407.9c11.48,0,20.85-9.79,21.39-22.1a51.27,51.27,0,0,1,26.46,8.92A55.38,55.38,0,0,1,714.55,419a62.17,62.17,0,0,1,4.76,24.31h0a59.62,59.62,0,0,1-16.16,38.89,50.16,50.16,0,0,1-73.5,0,57.72,57.72,0,0,1-11.41-17.43,60.46,60.46,0,0,1-4.75-21.46V297.76c0-4.68-3.5-8.54-7.82-8.54h-1.4c-4.32,0-7.81,3.86-7.81,8.54V443.3l0,.32a78.64,78.64,0,0,0,21.35,51.85c12.61,13.18,29.75,21.25,48.54,21.25s35.94-8.07,48.54-21.25a78.14,78.14,0,0,0,20.52-42.38,65.1,65.1,0,0,0,31.22-7.6,72.56,72.56,0,0,0,29.85-29.74A82,82,0,0,0,799.89,345,68.6,68.6,0,0,0,838,321.63a79.28,79.28,0,0,0,18.22-51.06c0-21.13-7.85-40-20.52-53.65A68.65,68.65,0,0,0,801,196.51a81,81,0,0,0,4.64-9.44c3.28-8,5-16.56,5-27.94a77.4,77.4,0,0,0-20.05-52.5c-12.43-13.43-29.49-21.75-48.4-21.75a60.47,60.47,0,0,0-7.23.44A77.36,77.36,0,0,0,714.27,45c-12.54-12.79-29.39-20.56-47.86-20.56-18.79,0-35.93,8.06-48.54,21.24a78.72,78.72,0,0,0-21.35,51.85l0,.33V237.73a43.24,43.24,0,0,0,11.23,29.42,36.88,36.88,0,0,0,27.11,12.21H651.5V260.85H634.83a20.5,20.5,0,0,1-15.05-6.77A24.18,24.18,0,0,1,613.52,237.73Z"/><path class="cls-2" d="M67.67,811.59c3.53,0,5.32-1.39,5.32-4.18v-4.67a3.8,3.8,0,0,0-1.41-3,6,6,0,0,0-3.91-1.14H46.16a5.75,5.75,0,0,0-3.77,1.14,3.79,3.79,0,0,0-1.4,3v33h0v8.73h0v39a3.72,3.72,0,0,0,1.4,3,5.65,5.65,0,0,0,3.77,1.16H67.67a5.92,5.92,0,0,0,3.91-1.16,3.73,3.73,0,0,0,1.41-3v-4.67c0-2.79-1.79-4.18-5.32-4.18H56.15V811.59Z"/><path class="cls-2" d="M832.33,811.59c-3.53,0-5.32-1.39-5.32-4.18v-4.67a3.8,3.8,0,0,1,1.41-3,6,6,0,0,1,3.91-1.14h21.51a5.75,5.75,0,0,1,3.77,1.14,3.79,3.79,0,0,1,1.4,3v33h0v8.73h0v39a3.72,3.72,0,0,1-1.4,3,5.65,5.65,0,0,1-3.77,1.16H832.33a5.92,5.92,0,0,1-3.91-1.16,3.73,3.73,0,0,1-1.41-3v-4.67c0-2.79,1.79-4.18,5.32-4.18h11.52V811.59Z"/></svg>